<svg xmlns="http://www.w3.org/2000/svg" xmlns:xlink="http://www.w3.org/1999/xlink" xmlns:inkscape="http://www.inkscape.org/namespaces/inkscape" version="1.1" viewBox="46.02 46.02 195.95 195.95">
<g inkscape:groupmode="layer" inkscape:label="Layer 1">

<path transform="matrix(1,0,0,-1,0,288)" d="M63.7203 241.9753H224.2797C234.013 241.9753 241.9756 234.0125 241.9756 224.2794V63.72C241.9756 53.987 234.013 46.0242 224.2797 46.0242H63.7203C53.987 46.0242 46.0244 53.987 46.0244 63.72V224.2794C46.0244 234.0125 53.987 241.9753 63.7203 241.9753" fill="#ffffff" fill-rule="evenodd" data-index="1" style="visibility: hidden;"/>
<path transform="matrix(1,0,0,-1,0,288)" d="M143.7154 122.8031 185.8459 196.3389C157.4694 144.3214 129.522 142.7715 102.0424 196.3389Z" fill="#20968a" fill-rule="evenodd" data-index="2"/>
<path transform="matrix(1,0,0,-1,0,288)" d="M143.9442 180.938C138.5331 180.938 134.1465 176.7044 134.1465 171.4822 134.1465 166.2599 138.5331 162.0264 143.9442 162.0264 149.3552 162.0264 153.7418 166.2599 153.7418 171.4822 153.7418 176.7044 149.3552 180.938 143.9442 180.938" fill="#20968a" fill-rule="evenodd" data-index="3"/>
<path transform="matrix(1,0,0,-1,0,288)" d="M128.5061 87.6858C156.3369 131.4235 99.8107 137.935 97.5841 157.6559 62.6204 120.2905 125.4702 117.2991 128.5061 87.6858" fill="#20968a" fill-rule="evenodd" data-index="4" style="opacity: 1;"/>
<path transform="matrix(1,0,0,-1,0,288)" d="M159.3822 87.6858C131.5514 131.4235 188.0776 137.935 190.3042 157.6559 225.2682 120.2905 162.4181 117.2991 159.3822 87.6858" fill="#20968a" fill-rule="evenodd" data-index="5" style="opacity: 1;"/>

<path transform="matrix(1,0,0,-1,0,288)" d="M65.6963 68.1684 65.435 63.3767 65.3043 60.3303C65.3168 60.3422 65.3289 60.3541 65.3414 60.3658 65.3536 60.3782 65.3666 60.3958 65.3788 60.4193 65.3913 60.4312 65.4041 60.4434 65.4165 60.4553 65.4287 60.4672 65.4412 60.4791 65.4534 60.4908 65.615 60.6807 65.7799 60.874 65.9483 61.0699 66.1158 61.266 66.2805 61.4645 66.4424 61.6666 66.6539 61.9279 66.8622 62.1921 67.0677 62.4591 67.2729 62.7265 67.4748 63.0028 67.6743 63.2877 67.8733 63.5607 68.0596 63.8402 68.2339 64.1251 68.4082 64.41 68.5695 64.6948 68.7189 64.9797 68.8309 65.1937 68.9306 65.4103 69.0171 65.6297 69.1044 65.85 69.1795 66.0728 69.2413 66.2978 69.3034 66.5118 69.3533 66.7259 69.3904 66.9393 69.4281 67.1533 69.4466 67.3668 69.4466 67.5805V67.6522 67.7231C69.4466 67.7945 69.4403 67.8657 69.4281 67.9371 69.4151 68.008 69.4029 68.0794 69.3904 68.1506 69.3782 68.2101 69.3595 68.2756 69.3343 68.3464 69.3096 68.4179 69.285 68.4893 69.2603 68.5604 69.2099 68.6911 69.139 68.8158 69.0454 68.9343 68.9522 69.0531 68.8499 69.1662 68.7379 69.2728 68.8241 69.3442 68.9148 69.4157 69.0083 69.4865 69.1013 69.5582 69.192 69.6234 69.2785 69.6827 69.3782 69.7422 69.4749 69.7983 69.5679 69.8519 69.6609 69.9052 69.7637 69.9557 69.876 70.0036H70.6224C70.6592 69.9911 70.6938 69.9795 70.725 69.9676 70.7559 69.9557 70.7837 69.95 70.8083 69.95 70.8466 69.9381 70.8803 69.9259 70.9112 69.914 70.9427 69.9021 70.971 69.8905 70.9957 69.8786 71.0203 69.8666 71.0481 69.8547 71.0793 69.8431 71.1102 69.8312 71.1448 69.8193 71.1819 69.8077 71.2066 69.7833 71.2346 69.766 71.2661 69.7541 71.297 69.7422 71.3254 69.73 71.35 69.7181 71.4118 69.6234 71.4677 69.5251 71.5181 69.4244 71.5674 69.3235 71.5989 69.2198 71.6114 69.1126 71.636 69.0058 71.6519 68.8989 71.6576 68.7917 71.6641 68.6854 71.6672 68.5783 71.6672 68.4714 71.6672 68.1386 71.6173 67.7883 71.5181 67.4201 71.4183 67.0524 71.2692 66.6723 71.0697 66.2805 70.8712 65.8885 70.647 65.4968 70.3979 65.1047 70.1495 64.7127 69.8822 64.3209 69.5957 63.9289 69.4712 63.7506 69.3442 63.5757 69.2135 63.4034 69.0829 63.231 68.9488 63.0618 68.8119 62.8957 68.675 62.7296 68.5383 62.5629 68.4014 62.3968 68.2645 62.2307 68.1279 62.0643 67.991 61.8979 67.6803 61.5297 67.3784 61.1708 67.0864 60.8204 66.7936 60.4704 66.5048 60.1226 66.2187 59.7784 65.9452 59.4459 65.6963 59.131 65.4724 58.8342 65.2482 58.5374 65.0492 58.252 64.8748 57.979L63.7929 57.6587H63.0465L63.3637 64.9089 59.3518 59.1191 58.5499 57.9971 57.3741 57.6405H56.6274L58.2506 67.3311C58.2506 67.3311 58.248 67.3311 58.2418 67.3311 58.2355 67.3311 58.2327 67.3311 58.2327 67.3311 58.2327 67.3311 58.229 67.3311 58.2228 67.3311 58.2165 67.3311 58.2134 67.3311 58.2134 67.3311 58.2012 67.3311 58.1856 67.3311 58.1672 67.3311 58.1482 67.3311 58.1267 67.3311 58.1014 67.3311 58.089 67.3194 58.0737 67.3138 58.0552 67.3138 58.036 67.3138 58.015 67.3138 57.9898 67.3138 57.6785 67.3013 57.3834 67.269 57.1031 67.2154 56.8239 67.1618 56.5591 67.0878 56.31 66.9929 56.0611 66.8857 55.8748 66.7165 55.7504 66.4852 55.626 66.2536 55.5639 65.954 55.5639 65.5855 55.5639 65.4313 55.5766 65.2796 55.6013 65.1314 55.626 64.9828 55.6637 64.8374 55.7135 64.6948 55.7751 64.5523 55.838 64.41 55.8998 64.2674 55.9624 64.1251 56.0307 63.9882 56.105 63.8575L54.743 63.0383H53.9963C53.9345 63.1689 53.8753 63.2996 53.8191 63.43 53.7633 63.5607 53.7168 63.697 53.6794 63.8402 53.6295 63.9825 53.5955 64.1251 53.5765 64.2674 53.5581 64.41 53.5487 64.5585 53.5487 64.7127 53.5487 64.974 53.5833 65.2204 53.6516 65.452 53.7199 65.6833 53.8223 65.9061 53.9592 66.1201 54.0961 66.3338 54.2517 66.53 54.4258 66.7077 54.5995 66.8857 54.7991 67.0524 55.0227 67.2066 55.0851 67.2423 55.1472 67.2778 55.2095 67.3138 55.2716 67.3492 55.334 67.3846 55.3961 67.4201 55.4584 67.4561 55.5205 67.4887 55.5823 67.5184 55.6449 67.5482 55.7067 67.5748 55.7697 67.5986 55.9803 67.6933 56.1923 67.7679 56.4032 67.8212 56.615 67.8747 56.8327 67.9071 57.0569 67.919 57.2805 67.9428 57.511 67.9575 57.7471 67.9637 57.9835 67.9694 58.2327 67.9788 58.4938 67.9904L60.6957 68.008H61.4418C61.3672 67.9371 61.2921 67.8747 61.2181 67.8212 61.143 67.7679 61.0685 67.7174 60.9939 67.6695 60.9063 67.6222 60.8227 67.5774 60.7419 67.536 60.6611 67.4946 60.5767 67.4617 60.4905 67.4382L60.173 65.9239 59.3147 61.0608 63.9609 67.7767 64.95 68.1684H65.6963ZM76.612 60.3658V59.885C76.5621 59.8377 76.5122 59.7872 76.4626 59.7339 76.4127 59.6803 76.3628 59.6299 76.3135 59.5826 76.2636 59.5346 76.2103 59.4876 76.155 59.4397 76.0992 59.3923 76.0394 59.345 75.9773 59.2971 75.8032 59.1429 75.6198 58.9946 75.4268 58.8518 75.234 58.7092 75.0325 58.5731 74.8205 58.4425 74.7207 58.371 74.6184 58.3087 74.5129 58.2551 74.4066 58.2018 74.3043 58.1513 74.2048 58.104 74.0928 58.0561 73.9837 58.015 73.8782 57.979 73.7728 57.9436 73.6699 57.9138 73.5701 57.89 73.4956 57.8665 73.421 57.8458 73.3465 57.8279 73.2713 57.8098 73.1974 57.7947 73.1222 57.7831 73.0483 57.7712 72.9763 57.7624 72.9079 57.7562 72.8393 57.7505 72.7747 57.7477 72.7118 57.7477L71.9657 57.7295C71.6797 57.7414 71.4339 57.7894 71.2287 57.8721 71.0235 57.9555 70.8644 58.0859 70.7525 58.2639 70.6283 58.4425 70.5379 58.6352 70.4823 58.843 70.4262 59.0508 70.3979 59.2798 70.3979 59.5293 70.3979 59.648 70.4047 59.7725 70.4171 59.9031 70.4293 60.0335 70.4418 60.1699 70.454 60.313 70.4786 60.4553 70.5039 60.601 70.5291 60.749 70.5538 60.8978 70.5852 61.0489 70.6224 61.2031 70.6592 61.3936 70.706 61.5807 70.7621 61.7644 70.8182 61.9483 70.8834 62.1295 70.9574 62.3081 71.0203 62.4858 71.0887 62.655 71.1632 62.8155 71.2378 62.9759 71.3186 63.1216 71.4061 63.2523 71.4308 63.2877 71.4589 63.3294 71.4898 63.3767 71.5207 63.4241 71.5552 63.4717 71.5921 63.519 71.6298 63.5664 71.6698 63.6143 71.7137 63.6616 71.7574 63.7095 71.8041 63.7569 71.8534 63.8042 71.9532 63.9111 72.0649 64.0179 72.1894 64.1251 72.3138 64.2319 72.445 64.3385 72.5817 64.4454 72.7186 64.5523 72.8609 64.65 73.0103 64.7396 73.1599 64.8286 73.3096 64.9089 73.4587 64.9797 73.5579 65.0151 73.654 65.0511 73.7473 65.0869 73.8414 65.1223 73.9312 65.1521 74.0183 65.1756 74.1175 65.1994 74.2079 65.2204 74.2887 65.238 74.3695 65.2558 74.454 65.2646 74.5407 65.2646H75.2871C75.4608 65.2646 75.6136 65.238 75.7443 65.1849 75.875 65.1314 75.9832 65.0568 76.0708 64.9621 76.1576 64.8553 76.2236 64.7396 76.2661 64.6146 76.3101 64.4902 76.3322 64.3445 76.3322 64.1784 76.3322 63.9882 76.307 63.8133 76.2574 63.6528 76.2075 63.4924 76.1329 63.3413 76.0331 63.1987 75.9464 63.0561 75.8435 62.9226 75.7256 62.7976 75.6074 62.6732 75.4798 62.5513 75.3432 62.4325L72.7489 60.6688 72.5066 60.5089V60.3839 60.277C72.5066 60.2651 72.5066 60.2532 72.5066 60.2413 72.5066 60.2297 72.5066 60.2235 72.5066 60.2235 72.5066 60.2116 72.5066 60.1997 72.5066 60.188 72.5066 60.1761 72.5066 60.1642 72.5066 60.1526 72.5066 60.1407 72.5066 60.1288 72.5066 60.1169 72.5066 60.1053 72.5066 60.099 72.5066 60.099 72.5066 60.0871 72.5066 60.0752 72.5066 60.0636 72.5066 60.0517 72.5066 60.0398 72.5066 60.0276 72.519 59.8731 72.5474 59.7189 72.5905 59.5647 72.6341 59.4102 72.6996 59.2679 72.7869 59.1372 72.8362 59.0539 72.9017 58.9799 72.9825 58.9144 73.0636 58.8492 73.1599 58.8044 73.2713 58.7809 73.2966 58.7925 73.3243 58.8013 73.3558 58.8076 73.3873 58.8132 73.4148 58.8226 73.4397 58.8342 73.5395 58.858 73.6362 58.8903 73.7291 58.932 73.8221 58.9737 73.9185 59.0185 74.0183 59.0658 74.105 59.1131 74.1926 59.1639 74.2793 59.2169 74.3664 59.2705 74.454 59.3215 74.5407 59.3685 74.6277 59.4278 74.7113 59.4876 74.7921 59.5466 74.8735 59.6064 74.9574 59.6653 75.0447 59.7251 75.0818 59.7487 75.1187 59.7756 75.1569 59.8048 75.1938 59.8346 75.2309 59.8674 75.2681 59.9031 75.306 59.9267 75.3432 59.9533 75.38 59.9834 75.4177 60.0131 75.4551 60.0398 75.4923 60.0636 75.5544 60.1226 75.6198 60.173 75.6882 60.2147 75.7565 60.2563 75.8157 60.3006 75.8656 60.3485V60.3658ZM72.6378 61.6666C72.824 61.7973 73.0077 61.9336 73.1877 62.0765 73.368 62.2191 73.5395 62.367 73.7008 62.5212 73.8751 62.6879 74.0027 62.8747 74.0835 63.0825 74.1643 63.2908 74.2048 63.519 74.2048 63.7685V63.822 63.8929C74.1926 63.9646 74.1711 64.0361 74.1396 64.1069 74.1081 64.1784 74.0744 64.2438 74.0367 64.3028 74.0245 64.3266 74.0151 64.3416 74.0083 64.3476 74.0027 64.3533 73.9868 64.3626 73.9621 64.3745 73.8876 64.3266 73.813 64.2674 73.7385 64.1959 73.6639 64.1251 73.5953 64.0361 73.5327 63.9289 73.4083 63.7387 73.2934 63.5397 73.1877 63.3319 73.0823 63.1242 72.9921 62.9014 72.917 62.6644 72.8677 62.5096 72.8209 62.3551 72.7773 62.2009 72.7339 62.0467 72.6934 61.8979 72.6557 61.7556 72.6557 61.7437 72.6557 61.7349 72.6557 61.7289 72.6557 61.7233 72.6557 61.7139 72.6557 61.702 72.6435 61.6901 72.6378 61.6816 72.6378 61.6754 72.6378 61.6697 72.6378 61.6666 72.6378 61.6666ZM87.5276 68.0615 88.7964 68.6673H89.5431L89.4501 68.222H90.2333C90.3078 68.2101 90.3886 68.2013 90.4759 68.1953 90.563 68.1891 90.65 68.1866 90.7373 68.1866 90.7744 68.1866 90.815 68.1866 90.8586 68.1866 90.9014 68.1866 90.9488 68.1866 90.9981 68.1866 91.0355 68.1746 91.0763 68.1684 91.12 68.1684 91.1631 68.1684 91.2098 68.1684 91.2594 68.1684 91.5452 68.133 91.8133 68.0794 92.0622 68.008 92.3111 67.9371 92.5534 67.8362 92.7893 67.7055 93.026 67.5867 93.2029 67.4175 93.3216 67.1975 93.4396 66.9779 93.4985 66.7077 93.4985 66.3868 93.4985 66.0311 93.4486 65.6952 93.3494 65.3808 93.2502 65.0662 93.0943 64.7663 92.8831 64.4808 92.6838 64.1959 92.4571 63.9439 92.2017 63.7237 91.9468 63.5043 91.6574 63.3112 91.3343 63.1451 91.0732 63.0145 90.8056 62.8957 90.5321 62.7888 90.2585 62.682 89.9782 62.581 89.6922 62.4858 89.4061 62.403 89.1167 62.3378 88.8242 62.2899 88.5325 62.2426 88.2369 62.2128 87.9378 62.2009L87.1172 58.7273 89.4501 58.8518H90.1959V58.7092C90.1216 58.6621 90.0465 58.6205 89.9719 58.5848 89.8974 58.5493 89.8223 58.5196 89.7483 58.4957 89.7111 58.4841 89.6732 58.4691 89.636 58.4512 89.5992 58.4331 89.5677 58.4186 89.5431 58.407 89.5056 58.3946 89.4679 58.3826 89.4311 58.371 89.394 58.3591 89.356 58.3472 89.3188 58.3353 89.257 58.3118 89.1918 58.288 89.1235 58.2639 89.0549 58.2403 88.9892 58.2165 88.9268 58.193 88.8523 58.1811 88.7814 58.1661 88.7131 58.1482 88.6445 58.1306 88.5787 58.1159 88.5166 58.104 88.3797 58.068 88.2369 58.0414 88.0872 58.0238 87.9378 58.0056 87.7887 57.9909 87.6396 57.979L84.5235 57.9436H83.7765 81.4076L82.1724 58.6919H84.8962L86.1282 63.4122 87.08 67.4028C86.7438 67.343 86.4295 67.2508 86.1378 67.1264 85.8453 67.0014 85.568 66.8503 85.3067 66.6723 84.9591 66.4228 84.6978 66.1082 84.5235 65.7281 84.3491 65.3479 84.2621 64.8969 84.2621 64.3745 84.2621 64.2557 84.2683 64.1398 84.2808 64.0267 84.2936 63.9142 84.312 63.7985 84.3367 63.6795 84.3619 63.5607 84.3897 63.445 84.4206 63.3319 84.452 63.2194 84.4858 63.1091 84.5235 63.0028L83.143 62.2363H82.3963C82.3839 62.2602 82.3745 62.2811 82.368 62.2993 82.3623 62.3166 82.3586 62.3316 82.3586 62.3435 82.3465 62.367 82.3377 62.3883 82.3309 62.4056 82.3243 62.4237 82.3156 62.4385 82.3031 62.4504 82.2903 62.4742 82.2815 62.4946 82.275 62.5127 82.2694 62.5306 82.2657 62.5513 82.2657 62.5748 82.2532 62.5867 82.2436 62.6046 82.2379 62.6284 82.2311 62.6519 82.2285 62.67 82.2285 62.682 82.2033 62.7534 82.1818 62.8274 82.1628 62.9045 82.1446 62.9816 82.1288 63.0618 82.1166 63.1451 82.1041 63.2279 82.0945 63.3144 82.0888 63.4034 82.082 63.4924 82.0789 63.5788 82.0789 63.6616 82.0789 64.2912 82.2002 64.8522 82.4431 65.3448 82.6852 65.838 83.0557 66.2624 83.5534 66.619 84.0379 66.9747 84.5518 67.2659 85.0924 67.4915 85.6338 67.7174 86.2027 67.8773 86.7997 67.9725 86.8249 67.9725 86.8527 67.9725 86.8836 67.9725 86.9151 67.9725 86.9488 67.9788 86.9865 67.9904 87.0117 67.9904 87.0395 67.9929 87.0707 67.9992 87.1016 68.0054 87.1294 68.008 87.154 68.008 87.2169 68.008 87.2785 68.0111 87.3414 68.0173 87.4032 68.023 87.4658 68.0321 87.5276 68.044ZM89.3188 67.7231 88.1062 62.9314C88.1555 62.9195 88.2085 62.9076 88.2646 62.8957 88.3205 62.8841 88.3735 62.8722 88.4234 62.8603 88.8216 62.8957 89.1791 62.9935 89.4963 63.1539 89.8135 63.3144 90.0904 63.5309 90.3268 63.8042 90.6004 64.1251 90.8056 64.4783 90.9425 64.8641 91.0794 65.2501 91.1477 65.6685 91.1477 66.1201 91.1477 66.4166 91.101 66.6692 91.0077 66.8769 90.9147 67.0847 90.7804 67.2483 90.606 67.3668 90.4448 67.4736 90.2554 67.557 90.0374 67.6162 89.8197 67.6757 89.5802 67.7112 89.3188 67.7231ZM93.312 57.7655 94.32 61.4526C94.3322 61.4886 94.3478 61.5297 94.3662 61.5776 94.3852 61.6249 94.4008 61.6785 94.413 61.7374 94.4254 61.7618 94.4345 61.7885 94.4413 61.8177 94.447 61.8477 94.4566 61.8806 94.4691 61.916 94.4691 61.9515 94.4722 61.9869 94.4785 62.0229 94.4844 62.0586 94.4938 62.094 94.5062 62.1295 94.5184 62.1536 94.5283 62.1805 94.5343 62.2097 94.5405 62.2395 94.5499 62.2664 94.5621 62.2899 94.5621 62.3134 94.5652 62.3404 94.5714 62.3701 94.5782 62.3999 94.587 62.4325 94.5992 62.4685 94.612 62.5275 94.6244 62.581 94.6372 62.6284 94.6497 62.6763 94.6619 62.7236 94.6743 62.7707 94.6743 62.8305 94.6806 62.8841 94.6928 62.9314 94.7058 62.9785 94.718 63.0264 94.7305 63.0737 94.7551 63.1689 94.771 63.2548 94.7767 63.3319 94.7835 63.409 94.7863 63.4774 94.7863 63.5372 94.7863 63.5964 94.7798 63.6466 94.7673 63.6883 94.7551 63.7299 94.7367 63.7685 94.7115 63.8042 94.699 63.7923 94.6837 63.7835 94.665 63.7773 94.6466 63.7716 94.6307 63.7685 94.6182 63.7685 94.606 63.7569 94.5904 63.7481 94.5714 63.7418 94.553 63.7356 94.5374 63.733 94.5252 63.733L94.413 63.6616 94.301 63.6262C94.2517 63.6024 94.2012 63.5788 94.1519 63.5547 94.1023 63.5309 94.0586 63.5074 94.0218 63.4836 93.9713 63.4717 93.9277 63.4569 93.8906 63.4388 93.8534 63.4215 93.8222 63.4065 93.7973 63.3946H93.0512L93.0881 63.8575C93.138 63.8813 93.2029 63.9142 93.2837 63.9558 93.3653 63.9969 93.4676 64.048 93.5923 64.1069 93.7043 64.1667 93.8251 64.2319 93.9557 64.3028 94.0864 64.3745 94.2267 64.4454 94.3761 64.5168L94.4691 64.5523 94.5814 64.6058C94.7551 64.6886 94.9232 64.7663 95.0848 64.8374 95.2464 64.9089 95.402 64.9797 95.5511 65.0511 95.7008 65.1104 95.8218 65.1583 95.9148 65.1937 96.0083 65.2292 96.08 65.2473 96.1294 65.2473H96.876C96.9007 65.2473 96.929 65.2442 96.9605 65.238 96.9908 65.2323 97.0191 65.2173 97.0444 65.1937 97.069 65.1818 97.0875 65.1609 97.1002 65.1314 97.1127 65.1016 97.1189 65.0687 97.1189 65.0333 97.1189 64.9979 97.1152 64.9621 97.1096 64.9261 97.1028 64.8907 97.0937 64.8434 97.0812 64.7838 97.069 64.76 97.0591 64.7396 97.0534 64.7215 97.0469 64.7036 97.0444 64.6829 97.0444 64.6594 97.0444 64.6475 97.0444 64.6381 97.0444 64.6325 97.0444 64.6265 97.0444 64.6234 97.0444 64.6234 97.0444 64.6115 97.0413 64.597 97.0345 64.5792 97.0288 64.561 97.0251 64.5463 97.0251 64.5344 97.0251 64.5463 97.0319 64.5554 97.0444 64.561 97.0566 64.5673 97.069 64.5704 97.0812 64.5704 97.0812 64.5823 97.0875 64.5908 97.1002 64.597 97.1127 64.6027 97.1189 64.6058 97.1189 64.6058 97.2181 64.6767 97.3205 64.7453 97.4268 64.8105 97.5322 64.876 97.6414 64.938 97.753 64.9979 97.865 65.0568 97.9835 65.1047 98.1079 65.1402 98.2324 65.1756 98.3568 65.1937 98.4813 65.1937H99.2271C99.2392 65.1937 99.2523 65.1937 99.2645 65.1937 99.2769 65.1937 99.2954 65.1937 99.3206 65.1937 99.3328 65.1818 99.3453 65.1756 99.3577 65.1756 99.3705 65.1756 99.3827 65.1756 99.3951 65.1756 99.4076 65.1756 99.4198 65.1756 99.4323 65.1756 99.445 65.1756 99.4635 65.1756 99.4881 65.1756 99.5012 65.164 99.5165 65.1583 99.5355 65.1583 99.5536 65.1583 99.5695 65.1583 99.582 65.1583 99.6066 65.1458 99.6313 65.1339 99.6565 65.1223 99.6812 65.1104 99.7123 65.1047 99.7495 65.1047 99.7747 65.0928 99.8025 65.0837 99.834 65.0781 99.8649 65.0718 99.8923 65.0631 99.9176 65.0511L99.3767 63.3946H98.6304C98.5552 63.4774 98.4813 63.5519 98.4061 63.6174 98.3316 63.6826 98.257 63.7387 98.1819 63.7866 98.1448 63.8101 98.1079 63.8308 98.0702 63.8487 98.0328 63.8663 97.9894 63.8813 97.9396 63.8929 97.9027 63.8813 97.8681 63.8694 97.8372 63.8575 97.806 63.8456 97.7715 63.834 97.7343 63.822 97.6975 63.8101 97.6623 63.7985 97.632 63.7866 97.6008 63.7747 97.5662 63.7625 97.5291 63.7506 97.4047 63.6914 97.2802 63.6262 97.1558 63.5547 97.0319 63.4836 96.9197 63.4122 96.8199 63.3413L95.4765 58.282 94.0586 57.7655H93.312ZM105.2167 65.2646C105.4777 65.253 105.717 65.2088 105.935 65.1314 106.1532 65.0543 106.3429 64.9443 106.5044 64.8017 106.6782 64.6475 106.8058 64.4689 106.8871 64.2674 106.9679 64.0653 107.0079 63.834 107.0079 63.5726 107.0079 63.4538 107.0016 63.3231 106.9894 63.1809 106.977 63.0383 106.9586 62.8957 106.9333 62.7534 106.9081 62.5989 106.8778 62.4472 106.8398 62.2993 106.8026 62.1505 106.7658 62.005 106.7281 61.8625 106.6782 61.6487 106.613 61.4378 106.5322 61.23 106.4514 61.0223 106.361 60.8176 106.2621 60.6152 106.1748 60.4137 106.0781 60.2266 105.9727 60.0542 105.8666 59.8825 105.7575 59.7308 105.6461 59.6001 105.6331 59.5763 105.6146 59.5528 105.59 59.5293 105.5648 59.5049 105.5401 59.4814 105.5154 59.4575 105.4908 59.4221 105.4624 59.3923 105.431 59.3685 105.4006 59.345 105.3726 59.3215 105.3473 59.2971 105.2977 59.2498 105.2382 59.1996 105.1699 59.146 105.1013 59.0924 105.0304 59.042 104.9553 58.9946 104.8561 58.9113 104.7501 58.8342 104.6381 58.7628 104.5259 58.6919 104.4147 58.6205 104.3028 58.5493 104.1783 58.4779 104.0567 58.4127 103.9385 58.3534 103.8203 58.2936 103.6993 58.2347 103.5748 58.1749 103.4252 58.104 103.2761 58.0442 103.127 57.9971 102.9779 57.9498 102.8288 57.9019 102.6791 57.8546 102.53 57.8191 102.3925 57.7894 102.2681 57.7655 102.1448 57.7414 102.0325 57.7295 101.9327 57.7295L101.1864 57.712C100.9001 57.7239 100.6515 57.7712 100.4397 57.8546 100.2288 57.9373 100.0539 58.068 99.9173 58.2466 99.7804 58.4243 99.678 58.6205 99.6097 58.8342 99.5411 59.0477 99.5068 59.2855 99.5068 59.5466 99.5068 59.6653 99.5134 59.7872 99.5258 59.9117 99.538 60.0367 99.5505 60.158 99.5627 60.277 99.5876 60.4074 99.6097 60.5381 99.6282 60.6688 99.6466 60.7995 99.6749 60.9301 99.7121 61.0608 99.7747 61.2865 99.843 61.5061 99.9173 61.7202 99.9921 61.9336 100.0797 62.1473 100.1784 62.3614 100.2781 62.5629 100.3904 62.7534 100.5148 62.9314 100.6393 63.1091 100.7694 63.2758 100.9063 63.43 100.9437 63.4774 100.9905 63.5253 101.0466 63.5726 101.1027 63.6199 101.1552 63.6678 101.2051 63.7152 101.2671 63.7625 101.3295 63.8133 101.3916 63.8663 101.454 63.9198 101.5223 63.9706 101.5968 64.0179 101.6467 64.0534 101.696 64.0891 101.7459 64.1251 101.7958 64.1605 101.8454 64.1959 101.8956 64.2319 101.9452 64.2557 101.9979 64.2849 102.054 64.3209 102.1102 64.3564 102.1626 64.3918 102.2131 64.4278 102.3242 64.4871 102.4398 64.5494 102.5578 64.6146 102.676 64.6798 102.7973 64.7422 102.9217 64.8017 103.0586 64.8609 103.1953 64.9176 103.3322 64.9709 103.4691 65.0245 103.6057 65.075 103.7426 65.1223 103.8798 65.1583 104.0068 65.1875 104.1253 65.2113 104.2435 65.2354 104.3586 65.2473 104.4709 65.2473V65.2646ZM103.9102 64.41C103.8237 64.3861 103.7333 64.3476 103.6397 64.2943 103.5468 64.2407 103.4504 64.1784 103.3506 64.1069 103.2015 63.9882 103.0646 63.8637 102.9402 63.733 102.8157 63.6024 102.7043 63.4657 102.6045 63.3231 102.5799 63.2758 102.5549 63.231 102.53 63.1894 102.5048 63.1477 102.4801 63.1091 102.4551 63.0737 102.4305 63.0264 102.4084 62.9847 102.39 62.9493 102.3715 62.9133 102.35 62.8778 102.3242 62.8424 102.2502 62.7236 102.1847 62.5929 102.1286 62.4504 102.0728 62.3081 102.0203 62.1655 101.9699 62.0229 101.9452 61.9515 101.9205 61.8806 101.8956 61.8092 101.8706 61.7374 101.8519 61.6666 101.8397 61.5951 101.8145 61.5124 101.7958 61.4353 101.7836 61.3636 101.7711 61.2927 101.759 61.2213 101.7459 61.1498 101.7337 61.1141 101.7244 61.0787 101.7181 61.0432 101.7116 61.0072 101.7085 60.9718 101.7085 60.9364 101.696 60.8885 101.6904 60.8474 101.6904 60.8114 101.6904 60.7759 101.6904 60.7402 101.6904 60.7048 101.6776 60.6334 101.6714 60.5619 101.6714 60.4908 101.6714 60.4193 101.6714 60.3485 101.6714 60.277 101.6714 60.2651 101.6714 60.2476 101.6714 60.2235 101.6714 60.1997 101.6714 60.1824 101.6714 60.1699 101.6714 60.1464 101.6714 60.1257 101.6714 60.1078 101.6714 60.0902 101.6714 60.0693 101.6714 60.0454 101.6714 60.01 101.6745 59.9746 101.6807 59.9386 101.687 59.9031 101.696 59.8674 101.7085 59.8314 101.7337 59.6772 101.7768 59.523 101.8397 59.3685 101.9013 59.2143 101.9764 59.072 102.0628 58.9414 102.1255 58.858 102.1972 58.7866 102.2777 58.7273 102.3585 58.6681 102.4551 58.6264 102.5674 58.6029 102.7536 58.6502 102.9311 58.7305 103.0992 58.843 103.2664 58.9558 103.4252 59.1075 103.5748 59.2971 103.7611 59.5466 103.9292 59.8079 104.0786 60.0809 104.2277 60.3541 104.3586 60.6396 104.4709 60.9364 104.4955 61.0191 104.5202 61.0994 104.5449 61.1765 104.5695 61.2541 104.5947 61.3338 104.62 61.4171 104.6324 61.4886 104.6477 61.5628 104.6662 61.6399 104.6854 61.717 104.7008 61.7973 104.7132 61.8806 104.7379 62.0348 104.7594 62.1774 104.7784 62.3081 104.7969 62.4385 104.8062 62.5629 104.8062 62.682 104.8062 62.7055 104.8062 62.7265 104.8062 62.744 104.8062 62.7622 104.8062 62.7826 104.8062 62.8067 104.7937 62.8186 104.7878 62.8362 104.7878 62.8603 104.7878 62.8841 104.7878 62.9076 104.7878 62.9314 104.7878 62.9549 104.7878 62.9759 104.7878 62.9935 104.7878 63.0116 104.7878 63.032 104.7878 63.0561 104.7747 63.0799 104.7691 63.1035 104.7691 63.1273 104.7691 63.1508 104.7691 63.1746 104.7691 63.1987 104.7317 63.3529 104.6854 63.5012 104.6293 63.644 104.5732 63.7866 104.4955 63.923 104.3957 64.0534 104.3464 64.1486 104.2781 64.2226 104.1905 64.2762 104.1032 64.3297 104.01 64.3745 103.9102 64.41" fill="#20968a" data-index="7" style="visibility: hidden;"/>

<path transform="matrix(1,0,0,-1,0,288)" d="M137.0682 60.3658V59.885C137.0188 59.8377 136.9684 59.7872 136.9191 59.7339 136.8697 59.6803 136.8193 59.6299 136.77 59.5826 136.7201 59.5346 136.6671 59.4876 136.6115 59.4397 136.5554 59.3923 136.4961 59.345 136.4335 59.2971 136.2597 59.1429 136.0766 58.9946 135.8838 58.8518 135.6908 58.7092 135.4887 58.5731 135.2769 58.4425 135.1772 58.371 135.0748 58.3087 134.9694 58.2551 134.8634 58.2018 134.761 58.1513 134.6613 58.104 134.549 58.0561 134.4402 58.015 134.3347 57.979 134.2293 57.9436 134.1264 57.9138 134.0266 57.89 133.952 57.8665 133.8775 57.8458 133.8029 57.8279 133.7284 57.8098 133.6535 57.7947 133.5787 57.7831 133.5044 57.7712 133.433 57.7624 133.3647 57.7562 133.2961 57.7505 133.2309 57.7477 133.1683 57.7477L132.4225 57.7295C132.1359 57.7414 131.8907 57.7894 131.6854 57.8721 131.4797 57.9555 131.3209 58.0859 131.2092 58.2639 131.0854 58.4425 130.9946 58.6352 130.9385 58.843 130.8827 59.0508 130.8543 59.2798 130.8543 59.5293 130.8543 59.648 130.8609 59.7725 130.8733 59.9031 130.8858 60.0335 130.898 60.1699 130.9105 60.313 130.9351 60.4553 130.9606 60.601 130.9856 60.749 131.0102 60.8978 131.0414 61.0489 131.0786 61.2031 131.1157 61.3936 131.163 61.5807 131.2183 61.7644 131.2744 61.9483 131.3399 62.1295 131.4145 62.3081 131.4765 62.4858 131.5451 62.655 131.6197 62.8155 131.6942 62.9759 131.7753 63.1216 131.8623 63.2523 131.887 63.2877 131.9153 63.3294 131.9468 63.3767 131.9771 63.4241 132.0114 63.4717 132.0491 63.519 132.086 63.5664 132.1262 63.6143 132.1699 63.6616 132.2135 63.7095 132.2603 63.7569 132.3102 63.8042 132.4097 63.9111 132.5211 64.0179 132.6455 64.1251 132.77 64.2319 132.9012 64.3385 133.0381 64.4454 133.1748 64.5523 133.3174 64.65 133.467 64.7396 133.6161 64.8286 133.7658 64.9089 133.9149 64.9797 134.0141 65.0151 134.1105 65.0511 134.204 65.0869 134.2976 65.1223 134.3877 65.1521 134.4745 65.1756 134.5737 65.1994 134.6644 65.2204 134.7452 65.238 134.8257 65.2558 134.9101 65.2646 134.9974 65.2646H135.7432C135.9176 65.2646 136.0698 65.238 136.201 65.1849 136.3311 65.1314 136.4403 65.0568 136.527 64.9621 136.614 64.8553 136.6798 64.7396 136.7232 64.6146 136.7663 64.4902 136.7884 64.3445 136.7884 64.1784 136.7884 63.9882 136.7631 63.8133 136.7138 63.6528 136.6639 63.4924 136.5894 63.3413 136.4896 63.1987 136.4026 63.0561 136.2997 62.9226 136.182 62.7976 136.0641 62.6732 135.9363 62.5513 135.7994 62.4325L133.2057 60.6688 132.963 60.5089V60.3839 60.277C132.963 60.2651 132.963 60.2532 132.963 60.2413 132.963 60.2297 132.963 60.2235 132.963 60.2235 132.963 60.2116 132.963 60.1997 132.963 60.188 132.963 60.1761 132.963 60.1642 132.963 60.1526 132.963 60.1407 132.963 60.1288 132.963 60.1169 132.963 60.1053 132.963 60.099 132.963 60.099 132.963 60.0871 132.963 60.0752 132.963 60.0636 132.963 60.0517 132.963 60.0398 132.963 60.0276 132.9752 59.8731 133.0036 59.7189 133.0472 59.5647 133.0906 59.4102 133.1558 59.2679 133.2434 59.1372 133.2927 59.0539 133.3579 58.9799 133.4387 58.9144 133.52 58.8492 133.6161 58.8044 133.7284 58.7809 133.753 58.7925 133.7808 58.8013 133.812 58.8076 133.8435 58.8132 133.8712 58.8226 133.8959 58.8342 133.9957 58.858 134.0923 58.8903 134.1856 58.932 134.2786 58.9737 134.3752 59.0185 134.4745 59.0658 134.5615 59.1131 134.6488 59.1639 134.7364 59.2169 134.8228 59.2705 134.9101 59.3215 134.9974 59.3685 135.0839 59.4278 135.1684 59.4876 135.2492 59.5466 135.3297 59.6064 135.4136 59.6653 135.5012 59.7251 135.538 59.7487 135.5751 59.7756 135.6131 59.8048 135.6503 59.8346 135.6871 59.8674 135.7248 59.9031 135.7622 59.9267 135.7994 59.9533 135.8368 59.9834 135.8739 60.0131 135.9116 60.0398 135.9485 60.0636 136.0108 60.1226 136.0766 60.173 136.1449 60.2147 136.2135 60.2563 136.2719 60.3006 136.3218 60.3485V60.3658ZM133.094 61.6666C133.2802 61.7973 133.4639 61.9336 133.6439 62.0765 133.8245 62.2191 133.9957 62.367 134.1573 62.5212 134.3316 62.6879 134.4591 62.8747 134.5399 63.0825 134.6204 63.2908 134.6613 63.519 134.6613 63.7685V63.822 63.8929C134.6488 63.9646 134.6272 64.0361 134.5958 64.1069 134.5646 64.1784 134.5306 64.2438 134.4932 64.3028 134.4807 64.3266 134.4713 64.3416 134.4654 64.3476 134.4591 64.3533 134.4436 64.3626 134.4189 64.3745 134.3438 64.3266 134.2692 64.2674 134.1947 64.1959 134.1201 64.1251 134.0518 64.0361 133.9894 63.9289 133.865 63.7387 133.7505 63.5397 133.6439 63.3319 133.5385 63.1242 133.4486 62.9014 133.3735 62.6644 133.3239 62.5096 133.2771 62.3551 133.2334 62.2009 133.1904 62.0467 133.1501 61.8979 133.1121 61.7556 133.1121 61.7437 133.1121 61.7349 133.1121 61.7289 133.1121 61.7233 133.1121 61.7139 133.1121 61.702 133.0997 61.6901 133.094 61.6816 133.094 61.6754 133.094 61.6697 133.094 61.6666 133.094 61.6666ZM156.8849 57.4625 157.7993 56.5897C157.5629 56.3403 157.2979 56.0996 157.0062 55.8683 156.7137 55.6367 156.3934 55.4199 156.045 55.2183 155.6963 55.0162 155.3389 54.8617 154.9718 54.7549 154.605 54.6477 154.2348 54.5944 153.8614 54.5944L153.1157 54.5769C152.7922 54.5888 152.481 54.6304 152.1822 54.7013 151.8837 54.7727 151.6039 54.8799 151.3429 55.0222 151.0815 55.1648 150.8238 55.319 150.5682 55.4851 150.3136 55.6517 150.061 55.8235 149.8122 56.0021L147.5923 57.7295 147.1445 57.6941H146.3978C145.8011 57.706 145.2909 57.7894 144.8683 57.9436 144.4448 58.0978 144.1091 58.3415 143.8605 58.6738 143.6117 59.0066 143.4246 59.3867 143.3004 59.8141 143.1765 60.2413 143.1139 60.7167 143.1139 61.2391 143.1139 61.3103 143.1139 61.3817 143.1139 61.4526 143.1139 61.524 143.1139 61.5951 143.1139 61.6666 143.1139 61.7374 143.117 61.8092 143.1232 61.8806 143.1292 61.9515 143.1386 62.0229 143.1507 62.094 143.189 62.4742 143.2505 62.8455 143.3381 63.2075 143.4246 63.5695 143.5433 63.9289 143.6924 64.2849 143.8415 64.6413 144.019 64.9797 144.2242 65.3006 144.4294 65.6212 144.6687 65.918 144.9422 66.191 145.1911 66.4404 145.4683 66.6748 145.7728 66.8951 146.0772 67.1148 146.4043 67.3138 146.7524 67.4915 147.1136 67.6695 147.4736 67.824 147.8347 67.9544 148.1958 68.0851 148.5624 68.1866 148.9357 68.2574 149.0598 68.2812 149.1817 68.3053 149.2994 68.3289 149.4176 68.3527 149.5386 68.3705 149.6631 68.3824 149.7875 68.3943 149.9088 68.4031 150.0273 68.4091 150.1455 68.4147 150.2668 68.4179 150.3907 68.4179H151.1376C151.3613 68.4179 151.5762 68.3974 151.7814 68.3558 151.9866 68.3141 152.1887 68.2517 152.3874 68.1684 152.5745 68.0851 152.752 67.9788 152.9192 67.8481 153.0873 67.7174 153.2401 67.5689 153.3767 67.4028 153.5261 67.2123 153.6474 67.0195 153.7404 66.8237 153.834 66.6275 153.9051 66.4228 153.9556 66.2088 153.9924 65.9951 154.0239 65.7785 154.0485 65.5588 154.0732 65.3391 154.0857 65.1166 154.0857 64.8907 154.0857 64.1307 153.9981 63.4153 153.8243 62.744 153.6506 62.0734 153.3824 61.4526 153.0221 60.8828 152.6737 60.3006 152.2227 59.7903 151.6694 59.3507 151.1155 58.9113 150.4658 58.5374 149.7192 58.2284 149.819 58.1457 149.9278 58.0654 150.0457 57.9883 150.1639 57.9112 150.2853 57.8248 150.4097 57.7295 150.5466 57.6349 150.6869 57.5337 150.8295 57.4271 150.9729 57.3202 151.1189 57.2131 151.2683 57.1062 151.3304 57.0708 151.3891 57.0353 151.4452 56.9993 151.501 56.9636 151.5609 56.9222 151.6226 56.8749 151.6725 56.8392 151.7281 56.8032 151.7907 56.7677 151.8525 56.7323 151.9152 56.6963 151.977 56.6609 152.0396 56.6254 152.0983 56.5897 152.1544 56.5537 152.2103 56.5183 152.2695 56.4766 152.3319 56.4293 152.394 56.3939 152.4563 56.3579 152.5184 56.3224 152.5802 56.287 152.6428 56.2516 152.7046 56.2156 152.8044 56.1563 152.9036 56.1027 153.0034 56.0554 153.1032 56.0078 153.2086 55.9604 153.3209 55.9125 153.4207 55.8652 153.5193 55.821 153.6191 55.7793 153.7189 55.7376 153.8186 55.6991 153.9173 55.6637 154.0542 55.6157 154.1823 55.5741 154.3 55.5386 154.4187 55.5032 154.5335 55.4794 154.6455 55.4678 154.857 55.5032 155.0469 55.5715 155.215 55.6724 155.3822 55.7731 155.5226 55.9069 155.6348 56.073 155.7839 56.287 155.9015 56.5095 155.9891 56.7411 156.0764 56.9724 156.1258 57.2187 156.1382 57.4801L156.8849 57.4625ZM148.8611 58.8878 149.0289 58.7628C149.2155 58.858 149.3926 58.9618 149.5607 59.0746 149.7288 59.1877 149.8873 59.3152 150.0364 59.4575 150.2484 59.6597 150.4412 59.8793 150.6149 60.1169 150.7893 60.3541 150.9386 60.6036 151.0631 60.8647 151.1252 60.9953 151.1838 61.1354 151.24 61.2833 151.2961 61.4322 151.3488 61.5832 151.3987 61.7374 151.4486 61.9041 151.4925 62.0702 151.5294 62.2363 151.5665 62.403 151.6039 62.5691 151.6416 62.7352 151.6663 62.8659 151.6878 62.9997 151.7063 63.1361 151.7255 63.2727 151.7409 63.4065 151.7536 63.5372 151.7783 63.6678 151.7939 63.7923 151.8001 63.9111 151.806 64.0298 151.8097 64.1486 151.8097 64.2674V64.3028 64.3745C151.7964 64.7901 151.7409 65.1875 151.6416 65.5676 151.5419 65.9477 151.3928 66.3097 151.1935 66.6544 151.0316 66.9512 150.8017 67.1856 150.503 67.358 150.2045 67.5303 149.8558 67.6341 149.4578 67.6695 149.1596 67.646 148.8767 67.5867 148.6086 67.4915 148.3418 67.3965 148.0836 67.2659 147.8347 67.0997 147.5365 66.9095 147.2683 66.693 147.0322 66.4498 146.7964 66.206 146.5843 65.9421 146.3978 65.6566 146.2609 65.4432 146.1365 65.226 146.0248 65.0064 145.9131 64.787 145.819 64.5585 145.745 64.3209 145.7079 64.2022 145.6736 64.0834 145.6421 63.9646 145.6112 63.8456 145.5834 63.733 145.5579 63.6262 145.5208 63.5074 145.493 63.3886 145.4746 63.2696 145.4556 63.1508 145.44 63.032 145.4278 62.9133 145.4153 62.8305 145.4031 62.744 145.3907 62.655 145.3782 62.566 145.3717 62.4742 145.3717 62.3789 145.3592 62.2962 145.3527 62.2128 145.3527 62.1295 145.3527 62.0467 145.3527 61.9634 145.3527 61.8806 145.3527 61.6431 145.366 61.4083 145.3907 61.1765 145.4153 60.9449 145.4525 60.7224 145.5029 60.5089 145.5523 60.283 145.6262 60.0693 145.726 59.8674 145.8258 59.6653 145.9565 59.4638 146.1183 59.2617 146.2178 59.1429 146.3292 59.0332 146.4537 58.932 146.5781 58.8311 146.715 58.7452 146.8647 58.6738 146.9517 58.6264 147.0353 58.5904 147.1167 58.5669 147.1975 58.5431 147.2814 58.5196 147.3681 58.4957 147.3806 58.4957 147.3902 58.4957 147.3959 58.4957 147.4027 58.4957 147.4053 58.5014 147.4053 58.5133 147.418 58.5133 147.4274 58.5133 147.4336 58.5133 147.4396 58.5133 147.4432 58.5133 147.4432 58.5133 147.4679 58.5252 147.4957 58.5374 147.5271 58.5493 147.558 58.5612 147.5923 58.5731 147.6295 58.5848 147.6541 58.5967 147.6825 58.6117 147.7134 58.629 147.7446 58.6471 147.7729 58.6621 147.7976 58.6738 147.8222 58.6857 147.8469 58.7007 147.8718 58.7186 147.8974 58.7361 147.922 58.7509 147.9467 58.7628 147.9716 58.7866 147.9997 58.8076 148.0306 58.8251 148.0615 58.843 148.0898 58.858 148.1151 58.8699V58.8878ZM162.6313 65.3542 161.8104 62.5572C161.7982 62.5212 161.7888 62.4858 161.7826 62.4504 161.7766 62.4149 161.7673 62.3852 161.7545 62.3614 161.742 62.3254 161.7327 62.2899 161.727 62.2545 161.7205 62.2191 161.7111 62.1831 161.699 62.1473 161.6859 62.1119 161.6769 62.0765 161.6712 62.0405 161.6644 62.005 161.655 61.9696 161.6428 61.9336 161.6304 61.8863 161.6207 61.8446 161.6151 61.8092 161.6083 61.7734 161.5995 61.7374 161.5867 61.702 161.5745 61.6547 161.562 61.6042 161.5493 61.5509 161.5368 61.4974 161.5246 61.4409 161.5122 61.3817 161.4997 61.3579 161.4906 61.3338 161.4838 61.3103 161.4781 61.2865 161.475 61.2629 161.475 61.2391 161.4623 61.2031 161.4535 61.1739 161.447 61.1498 161.4402 61.126 161.4376 61.1025 161.4376 61.0787 161.4002 60.9364 161.3718 60.8026 161.3537 60.6781 161.3347 60.5531 161.3132 60.4256 161.2885 60.2949 161.2755 60.1761 161.2633 60.0605 161.2508 59.9477 161.2386 59.8346 161.2324 59.7308 161.2324 59.6356 161.2324 59.6237 161.2324 59.612 161.2324 59.6001 161.2324 59.5882 161.2324 59.5826 161.2324 59.5826 161.2324 59.5704 161.2324 59.5585 161.2324 59.5466 161.2324 59.5346 161.2324 59.523 161.2324 59.5111 161.2324 59.4992 161.2324 59.4876 161.2324 59.4757 161.2324 59.4638 161.2324 59.4575 161.2324 59.4575 161.2324 59.4459 161.2349 59.434 161.2417 59.4221 161.2483 59.4102 161.2508 59.3986 161.2508 59.3867 161.2508 59.3742 161.2508 59.36 161.2508 59.3419 161.2508 59.324 161.257 59.3033 161.2695 59.2798 161.3316 59.3152 161.394 59.3507 161.456 59.3867 161.5184 59.4221 161.5867 59.4638 161.6613 59.5111L161.7174 59.5466 161.7925 59.5826C161.879 59.6418 161.9631 59.6923 162.0439 59.7339 162.1247 59.7756 162.203 59.8198 162.2769 59.8674 162.3521 59.9148 162.4139 59.9564 162.464 59.9919 162.5136 60.0276 162.5573 60.0517 162.5941 60.0636L162.7809 60.2059H163.5273L163.434 59.6891C163.3842 59.6418 163.3133 59.5851 163.2192 59.5199 163.1262 59.4544 163.0114 59.3742 162.8745 59.2798 162.8118 59.2319 162.7469 59.1877 162.6786 59.146 162.6103 59.1043 162.5448 59.0658 162.4822 59.0304 162.4204 58.9825 162.3552 58.9382 162.2866 58.8966 162.2183 58.8549 162.1468 58.8107 162.0717 58.7628 162.0471 58.7509 162.0224 58.7361 161.9977 58.7186 161.9725 58.7007 161.9473 58.68 161.9226 58.6559 161.9101 58.644 161.898 58.6352 161.8855 58.629 161.8733 58.6233 161.8608 58.6205 161.8481 58.6205 161.8228 58.6086 161.8047 58.5998 161.7925 58.5935 161.7797 58.5879 161.7673 58.5788 161.7545 58.5669 161.5805 58.4597 161.4098 58.3591 161.2417 58.2639 161.0734 58.1692 160.9089 58.0802 160.7468 57.9971 160.5855 57.9373 160.4486 57.8869 160.3363 57.8458 160.2244 57.8041 160.1379 57.7831 160.0753 57.7831L159.3289 57.7655C159.279 57.7774 159.2328 57.7922 159.1892 57.8098 159.1452 57.8279 159.1053 57.8546 159.0676 57.89 159.0307 57.9254 159.0055 57.9614 158.993 57.9971 158.9808 58.0326 158.9746 58.0742 158.9746 58.1216 158.9746 58.1692 158.9746 58.2165 158.9746 58.2639 158.9746 58.3118 158.9808 58.3591 158.993 58.407 158.993 58.466 158.9961 58.5227 159.0029 58.5763 159.0086 58.629 159.0182 58.68 159.0307 58.7273L159.0491 58.8163 159.0676 58.9232 159.1053 59.1191 158.2469 58.6029C158.2098 58.5788 158.1693 58.5493 158.1253 58.5133 158.0817 58.4779 158.0292 58.4425 157.9666 58.407 157.9419 58.3946 157.9141 58.377 157.8827 58.3534 157.8518 58.3294 157.8175 58.3118 157.7803 58.2999 157.7557 58.2763 157.7242 58.2551 157.6874 58.2372 157.6497 58.2197 157.6123 58.1987 157.5751 58.1749L157.4821 58.104 157.3699 58.0504C157.32 58.0269 157.2676 58.0028 157.2114 57.979 157.1556 57.9555 157.0963 57.9373 157.034 57.9254 157.0088 57.9138 156.9841 57.9019 156.9589 57.89 156.9342 57.8781 156.9095 57.8665 156.8843 57.8546 156.8098 57.8191 156.7414 57.7922 156.6791 57.7743 156.617 57.7562 156.5677 57.7477 156.53 57.7477L155.7839 57.7295C155.6963 57.7414 155.6186 57.7624 155.5503 57.7922 155.482 57.8217 155.4296 57.8665 155.3919 57.9254 155.3545 57.9733 155.3236 58.0294 155.2983 58.0946 155.2737 58.1601 155.249 58.2347 155.2243 58.3174 155.2243 58.3294 155.2243 58.3415 155.2243 58.3534 155.2243 58.3654 155.2243 58.3826 155.2243 58.407 155.2113 58.4186 155.2054 58.4331 155.2054 58.4512 155.2054 58.4691 155.2054 58.4841 155.2054 58.4957 155.2054 58.5315 155.2054 58.5638 155.2054 58.5935 155.2054 58.6233 155.2054 58.6502 155.2054 58.6738 155.2054 58.6976 155.2054 58.7242 155.2054 58.754 155.2054 58.784 155.2054 58.8163 155.2054 58.8518 155.2054 58.8759 155.2082 58.9028 155.215 58.932 155.2207 58.9618 155.2243 58.9887 155.2243 59.0122 155.2243 59.036 155.2243 59.0627 155.2243 59.0924 155.2243 59.1222 155.23 59.1548 155.2428 59.1908 155.2428 59.2143 155.2453 59.241 155.2521 59.2705 155.2581 59.3002 155.2612 59.3269 155.2612 59.3507 155.2612 59.3986 155.2643 59.4428 155.2706 59.4845 155.2768 59.5261 155.2859 59.5704 155.2983 59.618 155.3111 59.6537 155.3204 59.6923 155.3267 59.7339 155.3326 59.7756 155.342 59.8198 155.3545 59.8674 155.3797 59.9621 155.4043 60.0542 155.4296 60.1438 155.4542 60.2328 155.4789 60.3187 155.5036 60.402 155.5036 60.4256 155.5067 60.4491 155.5132 60.4729 155.5194 60.4964 155.5288 60.5208 155.541 60.5443 155.541 60.5682 155.5441 60.5948 155.5503 60.6246 155.5571 60.654 155.5662 60.6807 155.5787 60.7048 155.6033 60.764 155.6254 60.8323 155.6439 60.9094 155.6623 60.9866 155.6841 61.0668 155.7088 61.1498 155.734 61.2448 155.7592 61.3431 155.7839 61.4438 155.8086 61.5447 155.8332 61.6487 155.8579 61.7556 155.8712 61.7791 155.88 61.8029 155.8862 61.827 155.8922 61.8508 155.9015 61.8744 155.914 61.8979 155.914 61.9217 155.9174 61.9483 155.9237 61.9784 155.9299 62.0082 155.9395 62.0348 155.952 62.0586 155.9891 62.2009 156.0229 62.3404 156.0543 62.477 156.0852 62.6134 156.1136 62.7415 156.1382 62.8603 156.1629 62.9909 156.1819 63.1066 156.1944 63.2075 156.2066 63.3081 156.2134 63.3946 156.2134 63.4657V63.4836 63.5012C156.2134 63.5253 156.2097 63.5519 156.2034 63.5814 156.1972 63.6111 156.1876 63.6378 156.1751 63.6616 156.1629 63.6497 156.1473 63.6409 156.1289 63.635 156.1105 63.6293 156.0889 63.6199 156.0637 63.608L155.952 63.5547 155.8579 63.519C155.8086 63.4955 155.7621 63.4717 155.7184 63.4482 155.6748 63.4241 155.6348 63.4003 155.5971 63.3767 155.5597 63.3648 155.5226 63.3498 155.4854 63.3319 155.4474 63.3144 155.4171 63.2996 155.3919 63.2877H154.6455L154.7203 63.7866C154.7824 63.8101 154.8539 63.8427 154.9346 63.8844 155.0154 63.9261 155.1183 63.9825 155.2428 64.0534 155.3545 64.1132 155.4758 64.1784 155.6065 64.2495 155.7371 64.3209 155.8647 64.398 155.9891 64.4808L156.0637 64.5168 156.1382 64.5523C156.2995 64.6475 156.4554 64.7334 156.6045 64.8105 156.7539 64.8876 156.9036 64.9621 157.0527 65.0333 157.1893 65.1047 157.3047 65.1583 157.3977 65.1937 157.4909 65.2292 157.5629 65.2473 157.6123 65.2473H158.3589C158.396 65.2473 158.43 65.2411 158.4612 65.2292 158.4927 65.2173 158.5142 65.1994 158.5267 65.1756 158.5519 65.164 158.5667 65.1433 158.5735 65.1135 158.5797 65.0837 158.5826 65.0511 158.5826 65.0151 158.5826 65.0035 158.5826 64.9916 158.5826 64.9797 158.5826 64.9678 158.5826 64.9562 158.5826 64.9443 158.5698 64.9324 158.5641 64.9205 158.5641 64.9089 158.5641 64.8969 158.5641 64.8845 158.5641 64.8729 158.5519 64.8374 158.542 64.8048 158.5358 64.7751 158.5298 64.7453 158.5267 64.7184 158.5267 64.6948L158.508 64.6234V64.5704C158.4958 64.5463 158.4859 64.5225 158.4802 64.499 158.4737 64.4751 158.4711 64.4516 158.4711 64.4278L158.4522 64.3385 158.2469 63.519C158.2223 63.4241 158.1939 63.32 158.163 63.2075 158.1316 63.095 158.0975 62.9728 158.0607 62.8424 158.0474 62.7826 158.0323 62.7205 158.0134 62.655 157.9949 62.5898 157.9788 62.5212 157.9666 62.4504 157.9419 62.3908 157.9232 62.3285 157.9105 62.2633 157.8983 62.1978 157.8801 62.1295 157.8549 62.0586 157.8421 62.0229 157.8297 61.9869 157.8175 61.9515 157.805 61.916 157.7928 61.8806 157.7803 61.8446 157.7679 61.8092 157.7588 61.7734 157.752 61.7374 157.7463 61.702 157.7432 61.6666 157.7432 61.6311 157.693 61.4409 157.6466 61.2541 157.6029 61.0699 157.5592 60.8859 157.519 60.7048 157.4821 60.5265 157.4444 60.3485 157.4167 60.1849 157.3977 60.0367 157.3787 59.8881 157.3699 59.7606 157.3699 59.6537 157.3699 59.6418 157.3699 59.6299 157.3699 59.618 157.3699 59.6064 157.3699 59.6001 157.3699 59.6001 157.3699 59.5882 157.3699 59.5763 157.3699 59.5647 157.3699 59.5528 157.3699 59.5409 157.3699 59.5293 157.3699 59.5174 157.3699 59.5049 157.3699 59.4933 157.3699 59.4814 157.3761 59.4757 157.3883 59.4757 157.3883 59.4638 157.3914 59.4519 157.3977 59.4397 157.4045 59.4278 157.407 59.4159 157.407 59.4043 157.407 59.3685 157.4135 59.3331 157.426 59.2971 157.4382 59.2617 157.4507 59.2319 157.4631 59.2081 157.5252 59.2319 157.5845 59.256 157.6406 59.2798 157.6959 59.3033 157.7489 59.3331 157.7993 59.3685L157.8733 59.4221 157.9666 59.4757C157.9924 59.4992 158.0196 59.5199 158.0508 59.5378 158.0817 59.5559 158.1157 59.5704 158.1537 59.5826 158.1783 59.6064 158.2061 59.6268 158.2376 59.6449 158.2685 59.6622 158.2963 59.6772 158.3215 59.6891 158.3836 59.7251 158.4329 59.7574 158.4711 59.7872 158.508 59.8173 158.5451 59.8377 158.5826 59.8496L159.2918 60.2949 160.3363 64.6058 161.8855 65.3542H162.6313Z" fill="#20968a" data-index="9" style="opacity: 1; visibility: hidden;"/>

<path transform="matrix(1,0,0,-1,0,288)" d="M188.4008 53.6505 189.1468 54.8439H189.8938C190.0675 54.8201 190.245 54.7903 190.4255 54.7549 190.6055 54.7194 190.7892 54.6837 190.9757 54.6477 191.0375 54.6361 191.0937 54.6273 191.1436 54.6211 191.1934 54.6154 191.2493 54.6123 191.3117 54.6123 191.3615 54.6004 191.4146 54.5919 191.4707 54.5856 191.5265 54.58 191.579 54.5769 191.6289 54.5769 191.6289 54.5769 191.632 54.5769 191.6376 54.5769 191.6444 54.5769 191.6476 54.5769 191.6476 54.5769 191.6476 54.5769 191.6501 54.5769 191.6566 54.5769 191.6634 54.5769 191.666 54.5769 191.666 54.5769 191.7283 54.5769 191.7873 54.58 191.8429 54.5856 191.899 54.5919 191.952 54.6004 192.0025 54.6123 192.0518 54.6242 192.1011 54.6361 192.1516 54.6477 192.2009 54.6596 192.2508 54.6721 192.3007 54.6837 192.3378 54.6956 192.3814 54.7075 192.4308 54.7194 192.4812 54.7311 192.5306 54.7492 192.5799 54.7727 192.6797 54.8082 192.7704 54.8529 192.8509 54.9065 192.9317 54.9595 193.0037 55.0222 193.0654 55.0933 193.1278 55.1648 193.1805 55.245 193.2239 55.334 193.2676 55.423 193.3143 55.533 193.3642 55.6637 193.3889 55.7226 193.411 55.785 193.4291 55.8502 193.4481 55.9157 193.4697 55.9777 193.4949 56.0375 193.5074 56.0965 193.5258 56.1594 193.551 56.2246 193.5757 56.2901 193.5941 56.3522 193.6066 56.4114 193.6318 56.5302 193.6599 56.6433 193.6902 56.7499 193.7217 56.8568 193.7432 56.9636 193.7563 57.0708 193.7809 57.1776 193.8025 57.2723 193.8214 57.3557 193.8396 57.439 193.8555 57.5161 193.8677 57.587L194.2041 59.1372 193.8308 58.9054 192.8792 58.3353C192.854 58.3118 192.8262 58.288 192.795 58.2639 192.7641 58.2403 192.7301 58.2165 192.6921 58.193 192.6797 58.1811 192.6618 58.1692 192.636 58.1576 192.6113 58.1457 192.5932 58.1332 192.5799 58.1216 192.5552 58.1097 192.5337 58.0978 192.5152 58.0859 192.4965 58.0742 192.4744 58.0623 192.4498 58.0504 192.4376 58.0388 192.4251 58.0294 192.4129 58.0238 192.4004 58.0175 192.3936 58.015 192.3936 58.015 192.3814 58.0028 192.369 57.994 192.3568 57.9883 192.3443 57.9821 192.3321 57.979 192.3191 57.979L192.1884 57.9254C192.1391 57.9138 192.0861 57.8931 192.0302 57.8633 191.9741 57.8336 191.9149 57.8129 191.8528 57.801 191.8029 57.7774 191.7564 57.7624 191.7128 57.7562 191.6691 57.7505 191.6289 57.7477 191.5914 57.7477L190.8448 57.7295C190.7583 57.7414 190.6775 57.7655 190.6024 57.801 190.5279 57.8364 190.4655 57.8843 190.4162 57.9436 190.3657 57.9909 190.3258 58.0535 190.2949 58.1306 190.2634 58.2077 190.2356 58.288 190.211 58.371 190.211 58.3946 190.2076 58.4127 190.2013 58.4243 190.1951 58.4362 190.192 58.4544 190.192 58.4779 190.1798 58.4898 190.173 58.5045 190.173 58.5227 190.173 58.5403 190.173 58.555 190.173 58.5669 190.173 58.5904 190.173 58.6174 190.173 58.6471 190.173 58.6769 190.173 58.7092 190.173 58.7452 190.173 58.8044 190.173 58.8699 190.173 58.9414 190.173 59.0122 190.1798 59.0837 190.192 59.1548 190.2044 59.2262 190.2197 59.2971 190.2387 59.3685 190.2574 59.4397 190.2728 59.5111 190.2852 59.5826 190.2852 59.618 190.2881 59.6565 190.2949 59.6982 190.3011 59.7396 190.3099 59.7841 190.3226 59.8314 190.3226 59.8558 190.3258 59.8762 190.332 59.8944 190.338 59.9117 190.3479 59.9329 190.3601 59.9564 190.3601 59.9683 190.3632 59.9862 190.3694 60.01 190.3757 60.0335 190.385 60.0517 190.3972 60.0636 190.3972 60.0871 190.3972 60.1078 190.3972 60.1257 190.3972 60.1438 190.404 60.1642 190.4162 60.188 190.4162 60.1997 190.4187 60.2178 190.4255 60.2413 190.4318 60.2651 190.4409 60.283 190.4533 60.2949 190.4533 60.3187 190.4564 60.3397 190.4624 60.3573 190.4686 60.3751 190.478 60.3958 190.4902 60.4193 190.4902 60.4312 190.4939 60.4491 190.5001 60.4729 190.5063 60.4964 190.5094 60.5146 190.5094 60.5265L190.7892 61.5597C190.8014 61.5951 190.8145 61.6368 190.8266 61.6847 190.8391 61.7318 190.8513 61.7791 190.8638 61.827 190.8884 61.8863 190.9106 61.9427 190.929 61.9963 190.948 62.0498 190.9636 62.1057 190.9757 62.1655 190.9757 62.189 190.9789 62.2159 190.9851 62.2457 190.9913 62.2749 191.0004 62.3081 191.0129 62.3435 191.0251 62.367 191.0344 62.3968 191.0412 62.4325 191.0472 62.4685 191.0565 62.5039 191.069 62.5394 191.0812 62.5867 191.0906 62.6315 191.0971 62.6732 191.1027 62.7148 191.1127 62.7591 191.1249 62.8067 191.1373 62.8424 191.1467 62.8809 191.1532 62.9226 191.1589 62.9643 191.1688 63.0085 191.181 63.0561 191.2056 63.1392 191.2215 63.2163 191.2272 63.2877 191.234 63.3586 191.2371 63.43 191.2371 63.5012 191.2371 63.5253 191.234 63.5519 191.2272 63.5814 191.2215 63.6111 191.2119 63.6378 191.1994 63.6616 191.1994 63.6616 191.1994 63.6585 191.1994 63.6528 191.1994 63.6466 191.1994 63.644 191.1994 63.644 191.1872 63.644 191.181 63.644 191.181 63.644L191.0503 63.5907 190.9383 63.5372C190.9259 63.5253 190.9106 63.5159 190.8918 63.5105 190.8729 63.5043 190.8575 63.5012 190.8448 63.5012 190.8198 63.4893 190.8014 63.4805 190.7892 63.4745 190.7762 63.4689 190.764 63.4601 190.7515 63.4482 190.7147 63.4357 190.6832 63.4241 190.6586 63.4122 190.6339 63.4003 190.6092 63.3886 190.5834 63.3767L190.3972 63.3053H189.6508L189.707 63.7866C189.7569 63.8101 189.8218 63.8427 189.9026 63.8844 189.9836 63.9261 190.0865 63.9825 190.211 64.0534 190.3354 64.1251 190.4624 64.1959 190.5931 64.2674 190.7237 64.3385 190.8638 64.4156 191.0129 64.499L191.088 64.5344 191.1436 64.5704C191.3179 64.6651 191.4829 64.7515 191.6376 64.8286 191.7935 64.9057 191.9463 64.9797 192.0954 65.0511 192.2445 65.1223 192.3625 65.1756 192.4498 65.2113 192.5374 65.2473 192.5989 65.2646 192.636 65.2646H193.3826C193.4198 65.2646 193.4546 65.262 193.485 65.2558 193.5164 65.2501 193.538 65.2354 193.551 65.2113 193.5757 65.1994 193.5916 65.1787 193.5972 65.1489 193.604 65.1197 193.6066 65.0869 193.6066 65.0511 193.6066 65.0151 193.604 64.974 193.5972 64.9261 193.5916 64.8791 193.5819 64.8255 193.5694 64.7663 193.557 64.7303 193.5479 64.6948 193.5411 64.6594 193.5354 64.6234 193.532 64.5939 193.532 64.5704 193.5196 64.5344 193.5099 64.5021 193.5043 64.472 193.4974 64.4423 193.4887 64.41 193.4759 64.3745L193.4575 64.3209V64.2674C193.445 64.2078 193.4291 64.1517 193.411 64.0981 193.392 64.0449 193.3767 63.9882 193.3642 63.9289 193.3515 63.8813 193.339 63.8371 193.3268 63.7954 193.3143 63.7537 193.3081 63.7211 193.3081 63.697L193.0093 62.6284C192.9971 62.5929 192.9847 62.5544 192.9725 62.5127 192.96 62.4711 192.9532 62.4325 192.9532 62.3968 192.941 62.3494 192.9285 62.3049 192.9163 62.2633 192.9039 62.2216 192.8917 62.1774 192.8792 62.1295 192.854 62.0467 192.8288 61.9546 192.8041 61.8537 192.7794 61.7525 192.7548 61.6547 192.7301 61.5597 192.7301 61.5478 192.7264 61.5328 192.7205 61.5155 192.7142 61.4974 192.7111 61.4823 192.7111 61.4707 192.6986 61.4469 192.6896 61.429 192.6833 61.4171 192.6765 61.4052 192.674 61.3874 192.674 61.3636 192.6618 61.3281 192.6519 61.2927 192.6456 61.2567 192.6397 61.2213 192.6303 61.1858 192.6179 61.1498 192.5799 61.0072 192.5495 60.8647 192.5249 60.7224 192.4991 60.5798 192.4744 60.4434 192.4498 60.313 192.4251 60.1824 192.4061 60.0636 192.3936 59.9564 192.3814 59.8496 192.3746 59.7487 192.3746 59.6537V59.5647L192.3936 59.4933C192.3936 59.434 192.403 59.3773 192.4214 59.324 192.4407 59.2705 192.4688 59.22 192.5059 59.1727 192.5059 59.1608 192.5059 59.1548 192.5059 59.1548 192.5306 59.1664 192.5527 59.1783 192.5711 59.1908 192.5898 59.2024 192.6113 59.2143 192.636 59.2262 192.6865 59.2498 192.7358 59.2736 192.7857 59.2971 192.8356 59.3215 192.8849 59.345 192.9353 59.3685L193.047 59.4397C193.0723 59.4519 193.0969 59.4638 193.1216 59.4757 193.1462 59.4876 193.1715 59.4992 193.1961 59.5111 193.2335 59.5346 193.2676 59.5559 193.299 59.5735 193.3302 59.5913 193.358 59.612 193.3826 59.6356 193.4198 59.648 193.4546 59.6653 193.485 59.6891 193.5164 59.7132 193.5442 59.7308 193.5694 59.7424 193.6318 59.7784 193.6877 59.811 193.7373 59.8408 193.7871 59.87 193.8308 59.8969 193.8677 59.921L194.3717 60.2413 195.4355 64.5704 197.0215 65.336H197.7678L196.1447 59.1727C196.1323 59.0777 196.1164 58.9825 196.0977 58.8878 196.0792 58.7925 196.0571 58.6976 196.0325 58.6029 196.02 58.5077 196.0041 58.4127 195.9863 58.3174 195.9673 58.2228 195.9452 58.1275 195.9202 58.0326 195.908 57.9733 195.8922 57.9138 195.874 57.8546 195.855 57.7947 195.8397 57.7295 195.8272 57.6587 195.802 57.5989 195.7836 57.5368 195.7711 57.4713 195.7589 57.4061 195.7399 57.3437 195.7153 57.2842 195.6781 57.1535 195.6404 57.026 195.603 56.9015 195.5659 56.7765 195.5285 56.6552 195.4913 56.5364 195.4293 56.3579 195.3516 56.1886 195.2583 56.0288 195.1648 55.8683 195.0497 55.711 194.9128 55.5565 194.851 55.4851 194.7852 55.4111 194.7169 55.334 194.6486 55.2569 194.5831 55.1823 194.5213 55.1112 194.4465 55.0397 194.3748 54.9717 194.3065 54.9065 194.2381 54.8413 194.1727 54.7727 194.1106 54.7013 194.0981 54.6894 194.0854 54.6778 194.0729 54.6659 194.0607 54.654 194.0482 54.642 194.036 54.6304 194.0236 54.6304 194.0114 54.6242 193.9983 54.6123 193.9861 54.6004 193.9737 54.5888 193.9615 54.5769 193.9363 54.5533 193.9116 54.5289 193.8869 54.5054 193.8617 54.4816 193.837 54.4581 193.8118 54.4343 193.7373 54.3747 193.6655 54.3155 193.5972 54.256 193.5289 54.1967 193.4634 54.1434 193.4014 54.0961 193.339 54.0482 193.2772 54.0065 193.2146 53.9711 193.1528 53.9357 193.0901 53.8999 193.0283 53.8639 192.9039 53.7931 192.7763 53.7333 192.6456 53.6862 192.5152 53.6389 192.3814 53.6088 192.2445 53.5972 192.1079 53.5734 191.9551 53.5555 191.7873 53.5436 191.6198 53.5317 191.4361 53.5255 191.2371 53.5255L190.4902 53.5082 188.4008 53.6505ZM211.9671 59.1012 211.837 58.5848C211.576 58.3946 211.3021 58.2134 211.0164 58.0414 210.7298 57.8696 210.4248 57.706 210.1014 57.5515 209.7907 57.3973 209.4673 57.2635 209.1308 57.151 208.7955 57.0379 208.4593 56.9401 208.1239 56.8568 208.0616 56.8449 207.9958 56.8332 207.9275 56.8213 207.8589 56.8094 207.7943 56.7975 207.7319 56.7859 207.6568 56.774 207.5854 56.7615 207.517 56.7499 207.4484 56.738 207.3832 56.7261 207.3214 56.7145 207.197 56.6906 207.0694 56.6756 206.9388 56.67 206.8084 56.664 206.6746 56.6609 206.5377 56.6609L205.7916 56.6433C205.3182 56.6552 204.9024 56.7323 204.5412 56.8749 204.1801 57.0172 203.8757 57.225 203.6268 57.4982 203.3901 57.7593 203.2095 58.0654 203.0851 58.4155 202.9612 58.7659 202.8991 59.1548 202.8991 59.5826 202.8991 59.6418 202.8991 59.701 202.8991 59.7606 202.8991 59.8198 202.8991 59.8793 202.8991 59.9386 202.8991 59.9621 202.8991 59.989 202.8991 60.0188 202.8991 60.0486 202.9056 60.0809 202.9181 60.1169 202.9181 60.1407 202.9207 60.1673 202.9272 60.1968 202.9329 60.2266 202.936 60.2532 202.936 60.277 202.974 60.7402 203.0482 61.2031 203.1602 61.6666 203.2724 62.1295 203.4278 62.5867 203.6268 63.0383 203.8258 63.4893 204.0557 63.9173 204.317 64.3209 204.5781 64.7246 204.8641 65.1047 205.1759 65.4608L205.2128 65.4968 205.2689 65.5676C205.5671 65.8885 205.903 66.2003 206.2763 66.5031 206.6499 66.8055 207.0604 67.0997 207.5077 67.3846 207.9434 67.6579 208.3907 67.8804 208.8516 68.0528 209.3114 68.2251 209.778 68.3464 210.2511 68.4179 210.2757 68.4179 210.3009 68.4179 210.3256 68.4179 210.3503 68.4179 210.3749 68.4241 210.4002 68.436 210.4248 68.436 210.45 68.436 210.4747 68.436 210.4994 68.436 210.5246 68.436 210.5493 68.436 210.5745 68.436 210.5991 68.436 210.6238 68.436 210.6485 68.436 210.6799 68.4417 210.7171 68.4533 210.7423 68.4533 210.7672 68.4533 210.7922 68.4533 210.8169 68.4533 210.8415 68.4533 210.8667 68.4533H211.6128C211.9241 68.4533 212.2101 68.4179 212.4711 68.3464 212.7325 68.2756 212.9624 68.1746 213.162 68.044 213.3729 67.9017 213.535 67.7231 213.6464 67.5096 213.7586 67.2956 213.827 67.0346 213.8522 66.7259L212.4904 65.6031H211.7435C211.7313 65.8525 211.6879 66.0963 211.6128 66.3338 211.5383 66.5711 211.4323 66.7967 211.2956 67.0107 211.1834 67.1888 211.0442 67.3282 210.8758 67.4294 210.7077 67.5303 210.5062 67.5986 210.2695 67.6341 209.9336 67.5986 209.607 67.5153 209.2898 67.3846 208.9723 67.254 208.6645 67.0759 208.366 66.8503 208.0179 66.5889 207.7004 66.3097 207.4147 66.0129 207.1287 65.7162 206.8798 65.4072 206.6678 65.0869 206.5065 64.849 206.3571 64.5996 206.2205 64.3385 206.0836 64.0772 205.9591 63.8042 205.8469 63.519 205.7355 63.2341 205.6391 62.9493 205.558 62.6644 205.4772 62.3789 205.4058 62.0884 205.3434 61.791 205.3307 61.7318 205.3182 61.6697 205.306 61.6042 205.2935 61.539 205.2814 61.4764 205.2689 61.4171 205.2689 61.3457 205.2624 61.2777 205.2499 61.2125 205.2374 61.1473 205.2315 61.0843 205.2315 61.0254 205.219 60.9063 205.2096 60.7844 205.2037 60.66 205.1974 60.5356 205.1938 60.4074 205.1938 60.277 205.1938 59.9091 205.2442 59.5585 205.3434 59.2262 205.4426 58.8934 205.592 58.5904 205.7916 58.3174 205.9654 58.0802 206.1833 57.8962 206.4447 57.7655 206.7058 57.6349 207.0043 57.5515 207.3402 57.5161 207.6636 57.5399 207.9777 57.5901 208.2821 57.6675 208.5868 57.7446 208.8952 57.8426 209.2059 57.9614 209.5671 58.1275 209.9151 58.3024 210.2511 58.4867 210.587 58.6706 210.9098 58.8699 211.2216 59.0837V59.1012ZM220.5882 64.41 220.4575 63.8756C220.4328 63.7804 220.4045 63.6704 220.373 63.546 220.3427 63.4215 220.3084 63.2877 220.2707 63.1451 220.2585 63.0737 220.2398 62.9997 220.2148 62.9226 220.1899 62.8455 220.1715 62.765 220.1593 62.682 220.134 62.5989 220.1122 62.5187 220.0938 62.4416 220.0748 62.3645 220.0533 62.2843 220.0286 62.2009 220.0161 62.1655 220.0065 62.1295 220.0008 62.094 219.994 62.0586 219.9847 62.0229 219.9725 61.9869 219.96 61.9515 219.9504 61.916 219.9447 61.8806 219.9379 61.8446 219.9351 61.8092 219.9351 61.7734 219.8852 61.5478 219.8356 61.3312 219.7857 61.1235 219.7358 60.9151 219.6921 60.7105 219.655 60.5089 219.6181 60.3068 219.5898 60.1313 219.5714 59.9834 219.5524 59.8346 219.543 59.7132 219.543 59.618V59.5466L219.562 59.4575C219.6238 59.4933 219.689 59.5293 219.7576 59.5647 219.8259 59.6001 219.8917 59.6418 219.9535 59.6891L220.0286 59.7424 220.1031 59.7784C220.1777 59.8377 220.2523 59.8881 220.3268 59.9298 220.4014 59.9715 220.4759 60.0157 220.5505 60.0636 220.6256 60.1109 220.6905 60.1526 220.7466 60.188 220.8025 60.2235 220.8492 60.2532 220.8869 60.277H221.6327V59.796C221.5709 59.7487 221.4901 59.6891 221.3904 59.618 221.2906 59.5466 221.1729 59.4638 221.036 59.3685 220.9116 59.2855 220.7778 59.1934 220.6344 59.0924 220.4918 58.9918 220.3452 58.8934 220.1961 58.7988L220.0844 58.7273 219.9909 58.6559C219.8044 58.5374 219.6275 58.4274 219.4591 58.3268 219.2916 58.2253 219.1269 58.1275 218.9645 58.0326 218.8029 57.9498 218.666 57.8869 218.554 57.8458 218.4423 57.8041 218.3556 57.7831 218.2932 57.7831L217.5466 57.7655C217.4848 57.7774 217.4343 57.7922 217.3972 57.8098 217.3603 57.8279 217.3289 57.8546 217.3042 57.89 217.2917 57.9254 217.2796 57.9614 217.2671 57.9971 217.2538 58.0326 217.2481 58.0742 217.2481 58.1216 217.2481 58.1457 217.2481 58.1717 217.2481 58.2018 217.2481 58.2316 217.2481 58.2639 217.2481 58.2999 217.2481 58.3353 217.2512 58.371 217.2574 58.407 217.2637 58.4425 217.2728 58.4779 217.2852 58.5133V58.6029L217.3042 58.7092 217.3224 58.7988 217.3414 58.9054 217.3782 59.1191C217.2917 59.0601 217.2076 59.0034 217.1268 58.9501 217.046 58.8966 216.9621 58.8399 216.8748 58.7809 216.8501 58.7571 216.8218 58.7361 216.7909 58.7186 216.76 58.7007 216.7319 58.68 216.7067 58.6559 216.6942 58.644 216.6789 58.6321 216.6602 58.6205 216.6412 58.6086 216.6259 58.6029 216.6134 58.6029 216.6012 58.5904 216.5888 58.5788 216.5766 58.5669 216.5641 58.555 216.5519 58.5431 216.5389 58.5315 216.3776 58.4243 216.2154 58.3237 216.0539 58.2284 215.892 58.1332 215.7367 58.0504 215.5876 57.979 215.4379 57.9197 215.3047 57.8696 215.1862 57.8279 215.068 57.7862 214.9656 57.7655 214.8783 57.7655L214.132 57.7477C214.02 57.7593 213.9236 57.7862 213.8428 57.8279 213.7623 57.8696 213.6903 57.9254 213.6285 57.9971 213.5781 58.0921 213.535 58.1868 213.4973 58.282 213.4602 58.377 213.429 58.4779 213.4043 58.5848 213.3918 58.6086 213.3822 58.6352 213.3765 58.665 213.3697 58.6945 213.3672 58.7273 213.3672 58.7628 213.355 58.7866 213.3482 58.8132 213.3482 58.843 213.3482 58.8728 213.3482 58.8997 213.3482 58.9232 213.3357 58.9825 213.3298 59.0332 213.3298 59.0746 213.3298 59.1163 213.3298 59.1608 213.3298 59.2081 213.3298 59.3388 213.3357 59.4782 213.3482 59.6268 213.3607 59.7756 213.3797 59.9329 213.4043 60.099 213.429 60.2651 213.4602 60.4375 213.4973 60.6152 213.535 60.7938 213.5781 60.9718 213.6285 61.1498 213.6779 61.3519 213.734 61.5566 213.7961 61.7644 213.8584 61.9727 213.9267 62.1711 214.0013 62.3614 214.0758 62.5629 214.1504 62.744 214.2249 62.9045 214.2998 63.0649 214.3803 63.2106 214.4679 63.3413 214.53 63.4357 214.6017 63.5278 214.6822 63.6174 214.7635 63.7064 214.8469 63.7923 214.9342 63.8756 215.034 63.9584 215.1329 64.0386 215.2327 64.1157 215.3324 64.1928 215.4322 64.2674 215.5314 64.3385 215.5689 64.3626 215.6091 64.3887 215.6528 64.4187 215.6961 64.4485 215.7429 64.4751 215.7928 64.499 215.8174 64.5106 215.8396 64.5225 215.858 64.5344 215.8764 64.5463 215.8985 64.5642 215.9232 64.588 215.9357 64.5996 215.9541 64.6115 215.9793 64.6234 216.004 64.6356 216.0227 64.6475 216.0354 64.6594 216.1225 64.7184 216.203 64.7719 216.2778 64.8193 216.3523 64.8672 216.4207 64.9089 216.4833 64.9443 216.5451 64.9797 216.6103 65.0151 216.6789 65.0511 216.7472 65.0869 216.813 65.1166 216.8748 65.1402 216.9499 65.1756 217.0307 65.2025 217.1171 65.2204 217.2044 65.238 217.2917 65.253 217.3782 65.2646 217.478 65.2765 217.5871 65.2859 217.7048 65.2915 217.8238 65.2975 217.9636 65.3006 218.1251 65.3006H218.8712C218.971 65.3006 219.0674 65.2975 219.1609 65.2915 219.2539 65.2859 219.3503 65.2827 219.45 65.2827 219.5374 65.2708 219.6303 65.262 219.7298 65.2558 219.829 65.2501 219.9226 65.2411 220.0096 65.2292 220.1961 65.2056 220.3829 65.1756 220.5694 65.1402 220.7557 65.1047 220.9431 65.0687 221.129 65.0333L220.5882 64.41ZM217.6024 60.4193 218.0129 62.1831 218.554 64.2495C218.5294 64.2495 218.501 64.2495 218.4707 64.2495 218.4392 64.2495 218.4111 64.2557 218.3862 64.2674 218.3488 64.2674 218.3179 64.2705 218.2932 64.2762 218.268 64.2824 218.2433 64.2912 218.2181 64.3028 218.1688 64.3147 218.1189 64.3235 218.069 64.3297 218.0197 64.336 217.9698 64.3445 217.9199 64.3564 217.8575 64.3564 217.8017 64.3595 217.7518 64.3652 217.7022 64.3714 217.6523 64.3802 217.6024 64.3918 217.5778 64.4037 217.55 64.41 217.5188 64.41 217.4873 64.41 217.4596 64.41 217.4343 64.41 217.2852 64.3861 217.1514 64.3385 217.0338 64.2674 216.9153 64.1959 216.813 64.1069 216.7257 64.0001 216.6134 63.8456 216.5142 63.6883 216.4275 63.5278 216.3399 63.3679 216.2591 63.1987 216.1845 63.0201L216.1471 62.9314 216.11 62.8424C216.0227 62.6165 215.9419 62.382 215.8673 62.1388 215.7928 61.8951 215.7242 61.6547 215.6621 61.4171 215.6122 61.1796 215.5714 60.9395 215.5408 60.6957 215.5099 60.4522 215.4937 60.2059 215.4937 59.9564 215.4937 59.9329 215.4937 59.906 215.4937 59.8762 215.4937 59.8465 215.4937 59.8198 215.4937 59.796 215.4937 59.7841 215.4937 59.7725 215.4937 59.7606 215.4937 59.7487 215.5005 59.737 215.513 59.7251 215.513 59.701 215.513 59.6835 215.513 59.6716 215.513 59.6597 215.513 59.648 215.513 59.6356 215.5252 59.5647 215.5436 59.4961 215.5689 59.4309 215.5935 59.3657 215.625 59.3033 215.6621 59.2438 215.6621 59.2438 215.6652 59.241 215.6712 59.235 215.678 59.2294 215.6805 59.2262 215.6805 59.2262 215.6805 59.2143 215.6837 59.205 215.6905 59.1996 215.6961 59.1934 215.699 59.1908 215.699 59.1908 215.699 59.1908 215.7026 59.1934 215.7083 59.1996 215.7151 59.205 215.7242 59.2081 215.7367 59.2081 215.7489 59.2081 215.7588 59.2112 215.7644 59.2169 215.771 59.2231 215.7741 59.2262 215.7741 59.2262 215.8733 59.2855 215.9793 59.345 216.091 59.4043 216.203 59.4638 216.3152 59.5293 216.4275 59.6001 216.4521 59.612 216.4768 59.6268 216.5014 59.6449 216.5267 59.6622 216.5519 59.6772 216.5766 59.6891 216.5888 59.701 216.6012 59.7101 216.6134 59.7158 216.6259 59.722 216.6381 59.7308 216.6511 59.7424 216.6511 59.7424 216.6574 59.7455 216.6695 59.7518 216.682 59.7574 216.6942 59.7662 216.7067 59.7784 216.8065 59.8377 216.8969 59.9 216.9777 59.9652 217.0585 60.0307 217.1361 60.0871 217.2112 60.1345 217.2852 60.194 217.3572 60.2444 217.4255 60.2861 217.4941 60.3272 217.5531 60.3658 217.6024 60.402ZM222.0622 57.7655 223.0702 61.4526C223.0824 61.4886 223.0985 61.5297 223.1164 61.5776 223.1354 61.6249 223.151 61.6785 223.1631 61.7374 223.1756 61.7618 223.1847 61.7885 223.1915 61.8177 223.1972 61.8477 223.2068 61.8806 223.2193 61.916 223.2193 61.9515 223.223 61.9869 223.2286 62.0229 223.2351 62.0586 223.2439 62.094 223.2567 62.1295 223.2692 62.1536 223.2788 62.1805 223.2845 62.2097 223.2913 62.2395 223.3001 62.2664 223.3128 62.2899 223.3128 62.3134 223.3159 62.3404 223.3216 62.3701 223.3284 62.3999 223.3375 62.4325 223.35 62.4685 223.3621 62.5275 223.3746 62.581 223.3874 62.6284 223.3998 62.6763 223.412 62.7236 223.4245 62.7707 223.4245 62.8305 223.4307 62.8841 223.4429 62.9314 223.456 62.9785 223.4682 63.0264 223.4806 63.0737 223.5059 63.1689 223.5212 63.2548 223.5268 63.3319 223.5336 63.409 223.5365 63.4774 223.5365 63.5372 223.5365 63.5964 223.5305 63.6466 223.518 63.6883 223.5059 63.7299 223.4866 63.7685 223.4619 63.8042 223.4497 63.7923 223.4339 63.7835 223.4157 63.7773 223.3967 63.7716 223.3814 63.7685 223.3684 63.7685 223.3562 63.7569 223.3406 63.7481 223.3216 63.7418 223.3037 63.7356 223.2876 63.733 223.2754 63.733L223.1631 63.6616 223.0512 63.6262C223.0019 63.6024 222.952 63.5788 222.9021 63.5547 222.8525 63.5309 222.8088 63.5074 222.772 63.4836 222.7215 63.4717 222.6781 63.4569 222.6407 63.4388 222.6036 63.4215 222.5724 63.4065 222.5475 63.3946H221.8014L221.8388 63.8575C221.8881 63.8813 221.9536 63.9142 222.0344 63.9558 222.1155 63.9969 222.2178 64.048 222.3425 64.1069 222.4545 64.1667 222.5758 64.2319 222.7059 64.3028 222.8372 64.3745 222.9769 64.4454 223.1263 64.5168L223.2193 64.5523 223.3315 64.6058C223.5059 64.6886 223.6734 64.7663 223.8355 64.8374 223.9968 64.9089 224.1527 64.9797 224.3018 65.0511 224.4509 65.1104 224.5725 65.1583 224.6655 65.1937 224.7585 65.2292 224.8302 65.2473 224.8801 65.2473H225.6262C225.6514 65.2473 225.6792 65.2442 225.7106 65.238 225.7415 65.2323 225.7693 65.2173 225.7946 65.1937 225.8192 65.1818 225.8376 65.1609 225.8504 65.1314 225.8629 65.1016 225.8691 65.0687 225.8691 65.0333 225.8691 64.9979 225.866 64.9621 225.8597 64.9261 225.8529 64.8907 225.8444 64.8434 225.832 64.7838 225.8192 64.76 225.8099 64.7396 225.8036 64.7215 225.7974 64.7036 225.7946 64.6829 225.7946 64.6594 225.7946 64.6475 225.7946 64.6381 225.7946 64.6325 225.7946 64.6265 225.7946 64.6234 225.7946 64.6234 225.7946 64.6115 225.7914 64.597 225.7846 64.5792 225.779 64.561 225.7758 64.5463 225.7758 64.5344 225.7758 64.5463 225.7821 64.5554 225.7946 64.561 225.8067 64.5673 225.8192 64.5704 225.832 64.5704 225.832 64.5823 225.8376 64.5908 225.8504 64.597 225.8629 64.6027 225.8691 64.6058 225.8691 64.6058 225.9689 64.6767 226.0712 64.7453 226.1769 64.8105 226.2824 64.876 226.3915 64.938 226.5038 64.9979 226.6157 65.0568 226.7337 65.1047 226.8581 65.1402 226.9826 65.1756 227.107 65.1937 227.2314 65.1937H227.9775C227.99 65.1937 228.0025 65.1937 228.0146 65.1937 228.0271 65.1937 228.0461 65.1937 228.0708 65.1937 228.083 65.1818 228.0954 65.1756 228.1079 65.1756 228.1207 65.1756 228.1329 65.1756 228.1459 65.1756 228.1581 65.1756 228.1706 65.1756 228.1827 65.1756 228.1952 65.1756 228.2142 65.1756 228.2389 65.1756 228.2513 65.164 228.2666 65.1583 228.2856 65.1583 228.3043 65.1583 228.3197 65.1583 228.3321 65.1583 228.3568 65.1458 228.3814 65.1339 228.407 65.1223 228.4319 65.1104 228.4631 65.1047 228.5002 65.1047 228.5249 65.0928 228.5527 65.0837 228.5841 65.0781 228.6147 65.0718 228.6425 65.0631 228.6683 65.0511L228.1269 63.3946H227.3805C227.306 63.4774 227.2314 63.5519 227.1563 63.6174 227.0823 63.6826 227.0072 63.7387 226.9327 63.7866 226.895 63.8101 226.8581 63.8308 226.821 63.8487 226.783 63.8663 226.7402 63.8813 226.6897 63.8929 226.6529 63.8813 226.6183 63.8694 226.5874 63.8575 226.5562 63.8456 226.5216 63.834 226.4845 63.822 226.4477 63.8101 226.4131 63.7985 226.3822 63.7866 226.351 63.7747 226.3164 63.7625 226.2793 63.7506 226.1548 63.6914 226.0304 63.6262 225.906 63.5547 225.7821 63.4836 225.6698 63.4122 225.5706 63.3413L224.2267 58.282 222.8088 57.7655H222.0622Z" fill="#20968a" data-index="11" style="visibility: hidden;"/>

<path transform="matrix(1,0,0,-1,0,288)" d="M62.2463 137.137 53.8775 140.1653 53.8764 140.1766 61.6691 144.379C62.5646 144.8634 63.2373 145.2574 63.6857 145.5557 64.1353 145.8547 64.4865 146.1441 64.7328 146.4199L64.8377 145.1095 64.9423 143.7968C64.7158 143.8359 64.3734 143.7854 63.9136 143.6457 63.4544 143.5056 62.9586 143.3027 62.4263 143.0374L61.5997 142.632 61.9123 138.7103 62.0782 138.6737C62.7528 138.4517 63.4133 138.2913 64.0545 138.1918 64.6954 138.0951 65.1433 138.0861 65.3907 138.1689L65.4962 136.8471 65.6022 135.5207C65.2776 135.7866 64.8692 136.0375 64.3776 136.2725 63.8838 136.51 63.174 136.796 62.2463 137.137ZM56.9968 140.3243 60.4477 139.1902 60.2271 141.9537 56.9957 140.3359ZM61.4707 148.4118 53.4824 152.2644V152.2757L61.6955 155.6717C62.6391 156.0631 63.3515 156.3877 63.8308 156.6391 64.3102 156.8911 64.6911 157.1443 64.9675 157.3931L64.9267 156.0796 64.8862 154.7634C64.6651 154.8252 64.319 154.8096 63.8461 154.7167 63.3742 154.624 62.8583 154.4717 62.3001 154.2609L61.4341 153.9417 61.3123 150.0103 61.4727 149.9573C62.1193 149.6682 62.7579 149.4425 63.3849 149.2792 64.012 149.1185 64.4556 149.0644 64.7113 149.1219L64.6702 147.7967 64.6291 146.467C64.336 146.7638 63.9573 147.0543 63.4944 147.3378 63.0289 147.6238 62.3551 147.9798 61.4707 148.4118ZM56.6016 152.1091 59.9077 150.6345 59.9941 153.4045 56.6022 152.121ZM57.64 165.0387C57.2357 164.7899 56.9268 164.5245 56.7108 164.2436 56.4962 163.9587 56.3528 163.6322 56.2813 163.2617 56.198 162.8277 56.2669 162.445 56.4885 162.1103 56.7096 161.7761 57.0274 161.5748 57.4415 161.5025 57.7959 161.4407 58.1357 161.4937 58.466 161.6661 58.7937 161.8342 59.1968 162.1678 59.6815 162.6678 60.425 163.425 61.0778 163.9355 61.647 164.1954 62.2191 164.4591 62.8373 164.5316 63.5063 164.4143 64.4131 164.2561 65.1084 163.8179 65.5909 163.1018 66.0736 162.3838 66.225 161.5615 66.047 160.6348 65.958 160.1714 65.8474 159.7822 65.7153 159.4672 65.5804 159.1503 65.3763 158.7895 65.0996 158.3841L63.0584 158.741C63.5377 158.9859 63.9079 159.2637 64.1687 159.5707 64.4295 159.8771 64.5987 160.2346 64.6773 160.6439 64.7762 161.1598 64.7031 161.6114 64.4581 162.0065 64.2141 162.3988 63.8617 162.6364 63.3946 162.7183 62.9929 162.788 62.6114 162.7353 62.2553 162.5581 61.9047 162.3864 61.4803 162.0428 60.9775 161.5275 60.2578 160.7871 59.6285 160.287 59.0822 160.0299 58.538 159.7708 57.9555 159.694 57.3367 159.802 56.4823 159.9517 55.8281 160.3874 55.3791 161.1091 54.9298 161.8311 54.794 162.6622 54.9746 163.6027 55.0466 163.9803 55.1463 164.308 55.2722 164.5914 55.3978 164.8743 55.5582 165.1323 55.7558 165.3684ZM63.8045 166.6638 59.3096 167.8706C58.6409 168.05 58.072 168.1739 57.6051 168.2444 57.1354 168.3128 56.6376 168.3462 56.1064 168.3428L56.4375 169.4676 56.7697 170.5969C57.2097 170.3392 57.6493 170.1252 58.089 169.9526 58.5272 169.7791 59.0848 169.6008 59.7631 169.4186L61.2227 169.0268 62.5039 173.3757 61.0444 173.7675C60.3757 173.9472 59.8068 174.0711 59.3379 174.1416 58.8677 174.2105 58.3699 174.2428 57.8426 174.2383L58.1743 175.3631 58.5071 176.4924C58.9465 176.2353 59.3861 176.0213 59.8275 175.8475 60.2671 175.6746 60.8247 175.4963 61.5025 175.314L65.9971 174.1076C66.6697 173.9265 67.2412 173.802 67.7123 173.7306 68.1829 173.6623 68.6781 173.6297 69.2002 173.6359L68.8694 172.5131 68.5361 171.3818C68.1007 171.6372 67.6644 171.8507 67.2248 172.0236 66.786 172.1968 66.2258 172.3765 65.5435 172.5596L63.8739 173.0081 62.5929 168.6589 64.2623 168.2104C64.9349 168.0299 65.507 167.9054 65.9761 167.8351 66.4455 167.7662 66.9413 167.7336 67.4634 167.7399L67.1326 166.6171 66.7993 165.4863C66.3642 165.7417 65.9276 165.9552 65.4857 166.1287 65.0466 166.3013 64.4871 166.481 63.8045 166.6638ZM67.3328 177.198 63.0731 179.0237C62.4396 179.2947 61.8959 179.4974 61.4409 179.6349 60.9863 179.7684 60.4987 179.871 59.9766 179.9402L60.4817 181.0125 60.8241 181.7419C61.4049 182.9764 62.1111 183.8132 62.9478 184.2565 63.7846 184.6981 64.6821 184.7132 65.6442 184.3007 66.5073 183.9308 67.0283 183.2621 67.2058 182.2975 67.2562 181.9925 67.2772 181.6773 67.2729 181.3476L68.6982 181.5744C69.3677 181.69 70.0543 181.836 70.7584 182.0203 71.462 182.2022 72.3759 182.4712 73.5043 182.8236L72.6939 181.1001C72.0207 180.7909 71.1159 180.4805 69.9829 180.1681 68.8493 179.8566 67.7982 179.6261 66.8296 179.479L66.3026 179.4013 68.0264 178.6629C68.6642 178.3891 69.2099 178.1855 69.6631 178.0498 70.1152 177.9165 70.6005 177.8151 71.1176 177.7484L70.617 176.6837 70.113 175.6114C69.7218 175.926 69.3227 176.1982 68.9131 176.4323 68.5054 176.6653 67.9791 176.9207 67.3328 177.198ZM65.9256 179.5629V179.5629C66.1859 180.2186 66.2389 180.8212 66.0747 181.3697 65.8967 182.0007 65.4831 182.4562 64.8363 182.7334 64.247 182.986 63.6667 182.971 63.1001 182.6898 62.5765 182.4233 62.1459 181.9704 61.8069 181.328ZM71.4044 185.6358 66.2825 192.6428 66.2888 192.6524 75.2063 191.9268C76.2318 191.8446 77.0196 191.808 77.567 191.8131 78.1146 191.8176 78.5755 191.8681 78.942 191.9622L78.2546 190.8241 77.565 189.684C77.4014 189.8376 77.0885 189.9811 76.6261 190.1129 76.1644 190.245 75.6351 190.3442 75.0385 190.4111L74.1169 190.5216 72.0581 187.115 72.1729 186.9962C72.5992 186.4488 73.0497 185.9607 73.5202 185.5335 73.9925 185.1086 74.3567 184.8597 74.6101 184.7948L73.9162 183.6465 73.2206 182.4945C73.1095 182.8882 72.9201 183.3157 72.6531 183.7746 72.3852 184.2369 71.9688 184.8549 71.4044 185.6358ZM68.9522 191.0945 71.132 188.2998 72.5822 190.7008 68.9584 191.105ZM77.5746 197.8475V197.8475L74.429 198.3059C73.2674 198.4671 72.4059 198.5686 71.8432 198.6092 71.28 198.6503 70.8582 198.6409 70.581 198.5871L71.407 199.6002 72.2392 200.6212C72.3478 200.5055 72.5114 200.3978 72.7294 200.3003 72.9439 200.2031 73.1758 200.13 73.4247 200.082L76.8804 199.4547H76.8767L75.4483 202.5641C75.354 202.7786 75.2289 202.9822 75.0711 203.1763 74.9146 203.368 74.7711 203.5006 74.6422 203.5681L75.3851 204.4789 76.1295 205.3925C76.155 204.9834 76.2548 204.52 76.4345 204.0032 76.6114 203.4859 76.9122 202.7761 77.3402 201.8755L78.6489 199.086 80.1014 198.0065C80.6533 197.5963 81.1332 197.2755 81.5409 197.0396 81.9493 196.8066 82.3958 196.5971 82.8808 196.4151L82.1307 195.495 81.3747 194.5672C81.0729 194.9607 80.7531 195.3162 80.4132 195.6359 80.0748 195.9548 79.6272 196.3222 79.0671 196.738ZM87.3476 212.6738C86.8697 212.7254 86.4541 212.7064 86.1009 212.6188 85.746 212.5278 85.4184 212.3612 85.1185 212.1168 84.7661 211.8311 84.566 211.4926 84.5164 211.1 84.4659 210.7071 84.5796 210.3596 84.852 210.054 85.0861 209.7918 85.3843 209.6277 85.7546 209.562 86.1194 209.4945 86.6531 209.5098 87.3592 209.605 88.4367 209.7434 89.2814 209.7451 89.8943 209.6025 90.5119 209.4622 91.0392 209.1447 91.4805 208.6506 92.0775 207.9808 92.3261 207.2211 92.2263 206.3752 92.1243 205.5283 91.6974 204.7995 90.9465 204.1883 90.57 203.8827 90.2265 203.6483 89.9164 203.4836 89.6017 203.3198 89.204 203.1633 88.7213 203.0168L87.3763 204.5248C87.91 204.425 88.3809 204.4168 88.7859 204.4976 89.1907 204.5778 89.5589 204.7527 89.8909 205.0226 90.3084 205.3621 90.5511 205.7564 90.6231 206.2097 90.6936 206.6615 90.578 207.0587 90.2704 207.4034 90.0054 207.7002 89.6743 207.8892 89.2814 207.9669 88.8965 208.0457 88.34 208.0355 87.6087 207.9391 86.561 207.7999 85.7424 207.792 85.1482 207.9221 84.5552 208.0497 84.0535 208.3425 83.645 208.7997 83.0818 209.4307 82.8638 210.1632 82.9933 210.9937 83.1234 211.8243 83.5685 212.55 84.3307 213.1702 84.6366 213.4188 84.9308 213.6127 85.2163 213.7561 85.5006 213.8995 85.7959 214.0033 86.1055 214.0668ZM91.7473 214.727 93.4004 212.5052C94.1471 211.4935 94.8878 210.865 95.6217 210.6204 96.3536 210.3775 97.0957 210.5093 97.8435 211.0164 98.5292 211.4813 98.8982 212.0264 98.9467 212.6514 98.9949 213.2762 98.7287 213.9823 98.1428 214.7692L96.0182 217.6251C95.616 218.1657 95.2546 218.6033 94.936 218.9398 94.6157 219.2751 94.2494 219.5991 93.8364 219.9107L94.8342 220.5876 95.8371 221.2671C96.0094 220.8036 96.2104 220.3736 96.44 219.9736 96.6677 219.5759 96.984 219.1022 97.3919 218.554L100.0967 214.9183C100.5021 214.3743 100.8646 213.9344 101.183 213.5982 101.5044 213.2612 101.8695 212.9389 102.2794 212.6307L101.5064 212.1066 100.7252 211.5768 100.0191 212.5259 99.9213 212.1792C99.5655 211.0374 98.9328 210.1578 98.0271 209.5438 97.0515 208.8825 96.0746 208.6988 95.093 208.9936 94.1117 209.2878 93.1632 210.0472 92.2499 211.2744L90.3742 213.7961C89.9742 214.3346 89.6114 214.7743 89.293 215.1102 88.9722 215.4455 88.6065 215.7701 88.1935 216.0816L89.1913 216.7586 90.193 217.438C90.366 216.974 90.5669 216.544 90.7954 216.146 91.0202 215.7525 91.3371 215.2789 91.7473 214.727ZM102.7185 216.4269 100.6186 220.4076C100.3071 220.9995 100.0185 221.4839 99.7557 221.8646 99.4918 222.2422 99.1817 222.6149 98.8223 222.9831L99.9238 223.5129 101.1577 224.106C102.3389 224.6737 103.3461 224.8651 104.1783 224.6839 105.0146 224.5014 105.6759 223.9449 106.1671 223.0129 106.6963 222.0106 106.7389 221.1131 106.2967 220.3186 105.878 219.5776 105.0032 218.8692 103.6715 218.1934L104.2234 217.1477C104.5372 216.5533 104.8272 216.0646 105.0891 215.6868 105.3533 215.3092 105.6631 214.9379 106.02 214.5747L104.9287 214.0503 103.8291 213.5214C103.7333 214.0007 103.6032 214.4523 103.4396 214.8803 103.2772 215.3066 103.038 215.822 102.7185 216.4269ZM103.2931 218.9115V218.9115C104.1063 219.312 104.6205 219.7641 104.8411 220.2656 105.0602 220.769 104.9876 221.3677 104.6194 222.0667 104.26 222.7476 103.8121 223.1708 103.2761 223.3397 102.7386 223.5059 102.1139 223.4174 101.4004 223.0741L101.1586 222.9579ZM111.0118 217.006C110.9599 217.4913 110.8715 217.9522 110.7473 218.3924 110.6246 218.8307 110.4333 219.3642 110.1705 219.9926L108.4408 224.1326C108.1837 224.7483 107.9408 225.2548 107.7134 225.6557 107.4847 226.0536 107.2091 226.4508 106.8846 226.8473L108.8127 227.5812 112.5743 229.0136 112.515 228.0634 112.4504 227.1019C111.9719 227.1501 111.5252 227.1419 111.109 227.0781 110.6966 227.0129 110.2161 226.8771 109.6773 226.6719L109.2591 226.5123 110.6033 223.2955 114.0004 224.589 113.862 223.6113 113.7237 222.6334C113.3101 222.7 112.9059 222.7025 112.513 222.6447 112.1202 222.5871 111.6516 222.4562 111.1079 222.2493L111.0492 222.2271 112.4796 218.8035C113.3991 219.183 114.1384 219.5393 114.6951 219.8707 115.4353 220.314 116.047 220.818 116.5258 221.3878L116.5099 220.2409 116.4855 219.0903 112.9306 217.7368ZM117.8198 222.8494 116.555 227.1404C116.3673 227.7782 116.1816 228.3063 115.9997 228.7281 115.816 229.1468 115.5855 229.5694 115.3069 229.9958L116.4923 230.3141 117.2982 230.5307C118.6625 230.8969 119.7879 230.9159 120.6814 230.5874 121.5726 230.2577 122.1599 229.6094 122.4459 228.6405 122.7016 227.7709 122.4984 226.961 121.837 226.2121 121.6242 225.9797 121.3843 225.762 121.1165 225.5533L122.2129 224.6553C122.7351 224.2386 123.2923 223.8299 123.8922 223.4316 124.4897 223.0336 125.2925 222.5364 126.2979 221.9355L124.3936 221.4238C123.713 221.7192 122.8836 222.1824 121.9065 222.8119 120.9291 223.4424 120.0694 224.0654 119.3306 224.6805L118.9301 225.0167 119.4412 223.2805C119.6306 222.6376 119.8174 222.1072 119.9982 221.6883 120.1813 221.2722 120.4106 220.8509 120.6884 220.4291L119.5123 220.1134 118.3272 219.795C118.3294 220.2831 118.2912 220.75 118.2172 221.2002 118.1426 221.6486 118.0114 222.198 117.8198 222.8494ZM118.8179 225.3969V225.3969C119.5118 225.6262 120.0302 225.974 120.3656 226.4457 120.759 226.9803 120.8597 227.5758 120.668 228.2275 120.4926 228.8211 120.1093 229.2367 119.52 229.4711 118.9698 229.6837 118.3294 229.7089 117.5956 229.5454ZM130.7869 231.3473C130.4002 231.62 130.0303 231.802 129.678 231.8956 129.3236 231.9863 128.9523 231.9985 128.5645 231.9307 128.1098 231.8513 127.7597 231.654 127.5103 231.3383 127.2609 231.0225 127.1769 230.667 127.2521 230.2719 127.3175 229.9337 127.4896 229.6485 127.7756 229.4152 128.056 229.1822 128.526 228.9399 129.1876 228.6848 130.193 228.2899 130.9243 227.8877 131.3799 227.4715 131.8414 227.0546 132.1319 226.5279 132.2538 225.8895 132.4199 225.0241 132.2368 224.248 131.7064 223.5634 131.1741 222.8783 130.4223 222.4514 129.4512 222.2816 128.9659 222.1968 128.5449 222.1583 128.1903 222.1645 127.8317 222.1722 127.406 222.2266 126.9111 222.3306L126.5372 224.2791C126.9476 223.9381 127.3507 223.7057 127.7439 223.5818 128.1356 223.458 128.5461 223.4333 128.975 223.5084 129.5155 223.6025 129.9322 223.8282 130.2321 224.1862 130.5298 224.5436 130.6378 224.9422 130.5524 225.3875 130.4787 225.7719 130.2917 226.0933 129.9917 226.3484 129.6998 226.6004 129.2125 226.8581 128.5296 227.124 127.55 227.5038 126.8365 227.8888 126.3912 228.2851 125.9442 228.6791 125.663 229.1723 125.5499 229.7633 125.3928 230.5786 125.5887 231.317 126.1361 231.9738 126.6843 232.6306 127.4505 233.0461 128.4355 233.2185 128.831 233.2879 129.187 233.3146 129.509 233.3027 129.8307 233.2911 130.1409 233.2395 130.4419 233.1471ZM134.1074 226.3708 133.7525 230.815C133.7 231.476 133.6263 232.0288 133.5353 232.4764 133.4418 232.9211 133.304 233.3789 133.1184 233.8495L134.3486 233.9391 135.7254 234.0394C137.0449 234.1349 138.0521 233.9461 138.7494 233.4756 139.4498 233.0031 139.8393 232.2485 139.9221 231.2082 140.0117 230.0885 139.6933 229.2435 138.9674 228.6694 138.2851 228.136 137.1932 227.7992 135.6928 227.6578L135.786 226.4907C135.8385 225.8274 135.9125 225.2699 136.0035 224.8248 136.0973 224.3801 136.2356 223.9245 136.4213 223.4585L135.2024 223.3701 133.975 223.2811C134.0776 223.7587 134.1377 224.2236 134.1567 224.6788 134.1768 225.1324 134.1604 225.6962 134.1074 226.3708ZM135.629 228.4597V228.4597C136.5401 228.5351 137.1963 228.7655 137.5999 229.1494 138.0036 229.5349 138.1754 230.1151 138.1139 230.8952 138.0532 231.6555 137.8071 232.2099 137.3788 232.5606 136.9483 232.9098 136.3354 233.0549 135.5391 232.9974L135.2687 232.9773ZM142.0486 223.8962C142.204 224.3611 142.3142 224.8172 142.384 225.2679 142.454 225.7169 142.5002 226.279 142.5214 226.9553L142.6592 231.4106C142.6799 232.073 142.6674 232.63 142.6263 233.0841 142.5821 233.5363 142.4945 234.0054 142.3624 234.4924L144.4365 234.4337 148.4847 234.3195 148.0351 233.4699 147.5751 232.6122C147.1564 232.8384 146.7428 233.0005 146.3343 233.0997 145.9287 233.1969 145.4318 233.2545 144.8512 233.2709L144.4011 233.2837 144.2942 229.8214 147.9498 229.718 147.4155 228.8741 146.8811 228.0291C146.5305 228.2471 146.1597 228.403 145.7753 228.4991 145.3918 228.5955 144.9068 228.6536 144.3214 228.67L144.2588 228.672 144.1446 224.9875C145.1463 224.987 145.9735 225.0326 146.622 225.1253 147.4849 225.2514 148.2568 225.4816 148.9331 225.8226L148.441 224.7761 147.939 223.7295 144.1137 223.8375ZM158.4632 223.3097C157.7993 223.0784 157.2228 222.9338 156.7281 222.8777 156.2357 222.8196 155.662 222.8289 155.0112 222.9049 153.434 223.0903 152.1862 223.7366 151.2635 224.8455 150.3408 225.9539 149.9769 227.251 150.1682 228.7383 150.3768 230.3634 151.1056 231.6509 152.3565 232.5957 153.6063 233.5399 155.0679 233.9133 156.7409 233.7168 157.2718 233.6545 157.7546 233.5609 158.1866 233.4334 158.6214 233.3081 159.0619 233.1309 159.5078 232.9036L159.2853 231.171C158.8958 231.5239 158.455 231.8108 157.9572 232.0319 157.4595 232.253 156.9365 232.3956 156.3891 232.4599 155.2927 232.5883 154.3263 232.3015 153.4972 231.5985 152.6661 230.8978 152.1748 229.9527 152.0218 228.7675 151.869 227.5756 152.0844 226.5449 152.6717 225.678 153.2577 224.8095 154.0661 224.3137 155.0982 224.193 155.793 224.1116 156.4194 224.1357 156.9815 224.2633 157.5448 224.3925 158.1403 224.6479 158.7699 225.0306ZM160.9594 225.2163 162.015 229.5575C162.1726 230.203 162.2758 230.7518 162.3294 231.2045 162.3793 231.656 162.3912 232.1323 162.3617 232.6348L163.554 232.3704 164.7507 232.105C164.5019 231.6736 164.2986 231.2444 164.1382 230.8201 163.9772 230.396 163.8159 229.8532 163.6551 229.1939L162.5995 224.8526C162.4411 224.202 162.337 223.6518 162.284 223.1986 162.2333 222.7476 162.2228 222.2734 162.2534 221.7762L161.0631 222.0401 159.8644 222.306C160.1113 222.7323 160.3148 223.1586 160.4764 223.5875 160.6363 224.0099 160.7978 224.5524 160.9594 225.2163ZM166.0544 224.0354 172.2345 230.2163 172.2453 230.2129 173.2671 221.7243C173.3865 220.7486 173.5047 220.0039 173.6184 219.4931 173.7315 218.9815 173.8746 218.5603 174.0444 218.2357L172.7396 218.6538 171.4317 219.073C171.557 219.2564 171.6426 219.5776 171.6863 220.0363 171.7305 220.4946 171.7279 221.01 171.678 221.5811L171.6092 222.4653 167.7033 223.7168 167.6035 223.5855C167.1267 223.0784 166.7149 222.5599 166.3693 222.035 166.0263 221.5091 165.8432 221.1188 165.8268 220.8688L164.5101 221.2906 163.1894 221.7138C163.5721 221.8955 163.9732 222.1571 164.3913 222.4976 164.8131 222.8403 165.3653 223.3525 166.0544 224.0354ZM171.174 227.4114 168.7363 224.8183 171.4881 223.9367 171.1857 227.4077ZM175.0637 217.7065C175.3929 218.0798 175.6783 218.461 175.9226 218.8517 176.1667 219.2411 176.4354 219.7437 176.7254 220.3614L178.638 224.4268C178.9226 225.0317 179.1349 225.5508 179.278 225.9853 179.4183 226.4193 179.5258 226.8842 179.5983 227.3825L180.7155 226.9037 181.8366 226.4233C181.5055 226.046 181.2183 225.6627 180.9757 225.2755 180.7328 224.8886 180.4643 224.3857 180.1738 223.7686L177.4491 217.9749C178.2261 217.6775 178.8936 217.4621 179.4557 217.3306 180.3044 217.1285 181.1089 217.0619 181.8714 217.1273L180.9947 216.3342 180.108 215.5442 176.9502 216.898ZM184.0482 216.8768 186.3811 220.7373C186.728 221.3118 186.9939 221.8076 187.1827 222.226 187.3678 222.6444 187.5249 223.0963 187.6499 223.5855L188.7103 223.0013 189.7744 222.4148C189.4045 222.0718 189.0791 221.718 188.7968 221.3563 188.5139 220.9949 188.1935 220.5207 187.8395 219.9345L185.506 216.0734C185.1574 215.4954 184.89 214.9977 184.7013 214.579 184.5156 214.1612 184.3608 213.7102 184.2389 213.2263L183.1799 213.8091 182.1138 214.3964C182.4809 214.7357 182.8049 215.087 183.09 215.4526 183.3712 215.8126 183.6913 216.2863 184.0482 216.8768ZM190.1384 213.3431 194.0173 218.539C193.5266 218.8451 193.0927 219.092 192.7137 219.276 191.9806 219.6357 191.3185 219.8543 190.7237 219.9294L191.5486 220.4972 192.3763 221.0683 195.4023 219.0095 198.877 216.6454 198.1312 216.0802 197.3784 215.5212C196.9892 216.07 196.6408 216.5105 196.3287 216.845 196.0515 217.1299 195.7459 217.3972 195.4137 217.6407L191.5098 212.4105C191.1373 211.9122 190.838 211.46 190.6177 211.0575 190.3952 210.6558 190.1889 210.1924 189.9975 209.67L188.9674 210.371 187.9296 211.0771C188.3738 211.4099 188.7576 211.7446 189.0799 212.0774 189.4037 212.4111 189.758 212.8334 190.1384 213.3431ZM198.9187 209.2436V209.2436L199.5667 212.2166C199.7972 213.3162 199.95 214.132 200.022 214.6657 200.0954 215.2012 200.1084 215.6029 200.0667 215.8705L201.0824 215.0289 202.1054 214.1807C201.979 214.0838 201.8574 213.9335 201.744 213.7309 201.6303 213.5313 201.5416 213.3147 201.4778 213.0797L200.6371 209.8191V209.8222L203.9666 211.0173C204.1957 211.0966 204.4151 211.2046 204.6266 211.3449 204.8355 211.4838 204.982 211.6128 205.0591 211.7327L205.973 210.9756 206.888 210.217C206.4591 210.2145 205.9688 210.1439 205.4191 210.0005 204.8683 209.8602 204.1098 209.6107 203.1449 209.2513L200.1572 208.1526 198.9507 206.8251C198.4918 206.3211 198.1304 205.8814 197.862 205.505 197.5961 205.128 197.3537 204.7139 197.1371 204.2609L196.2145 205.0251 195.2847 205.7961C195.7124 206.0626 196.1008 206.3483 196.4537 206.6556 196.8055 206.9609 197.2134 207.3682 197.6783 207.8796ZM206.354 199.8014 210.0112 202.572C210.5555 202.9844 210.9932 203.3521 211.3271 203.6721 211.6602 203.9956 211.9796 204.3612 212.2877 204.7748L213.0494 203.8598 213.8131 202.9408C213.3369 202.7514 212.898 202.5363 212.4938 202.2979 212.0896 202.0598 211.6114 201.7327 211.0601 201.3148L209.8721 200.4148 212.8144 196.8761 214.0024 197.7766C214.5461 198.1885 214.9841 198.5562 215.3191 198.8776 215.6528 199.201 215.9717 199.5673 216.2767 199.9777L217.0372 199.0627 217.8017 198.1437C217.3258 197.9538 216.8867 197.7395 216.4808 197.4994 216.076 197.2607 215.5978 196.9336 215.047 196.5161L211.3897 193.7449C210.8421 193.3299 210.4016 192.9611 210.0648 192.638 209.7315 192.3146 209.4137 191.95 209.1135 191.5427L208.3544 192.456 207.5885 193.3767C208.0607 193.5632 208.4973 193.7767 208.9015 194.0153 209.3057 194.2529 209.7862 194.5817 210.3415 195.0024L211.6998 196.0319 208.7575 199.5704 207.3991 198.5409C206.8515 198.1256 206.4107 197.7565 206.077 197.4351 205.7426 197.1116 205.4248 196.7468 205.1249 196.3395L204.3652 197.2531 203.5996 198.1735C204.0715 198.3603 204.5092 198.5737 204.9146 198.8133 205.3188 199.0519 205.7987 199.3802 206.354 199.8014ZM212.5998 185.5443C211.8135 186.8386 211.6346 188.1816 212.0681 189.5672 212.5006 190.9548 213.4386 192.0481 214.8823 192.8477 216.2823 193.623 217.7218 193.8087 219.204 193.407 220.6879 193.0054 221.8465 192.115 222.6844 190.7362 223.4733 189.438 223.6507 188.0915 223.2153 186.7056 222.7805 185.3164 221.8431 184.2233 220.3988 183.4237 219.0025 182.6507 217.5656 182.4661 216.0828 182.8678 214.6 183.2695 213.4397 184.1624 212.5998 185.5443ZM213.9457 185.8969C214.4699 185.0346 215.2383 184.498 216.2446 184.29 217.2543 184.083 218.2552 184.2548 219.2488 184.805 220.4252 185.4561 221.2115 186.3111 221.6089 187.3695 222.006 188.428 221.9156 189.4323 221.3379 190.3833 220.8161 191.2422 220.0501 191.7765 219.0421 191.9849 218.0324 192.1921 217.0307 192.0189 216.0323 191.4659 214.8602 190.8173 214.0758 189.9638 213.6784 188.9053 213.2813 187.8469 213.3703 186.8443 213.9457 185.8969ZM226.5469 177.6053C226.7541 178.02 226.8714 178.4004 226.9012 178.7482 226.927 179.098 226.8697 179.4481 226.7269 179.7987 226.5596 180.2103 226.2903 180.5014 225.9184 180.6758 225.546 180.8495 225.165 180.8614 224.7724 180.716 224.437 180.591 224.1768 180.3759 223.9897 180.0638 223.8035 179.7568 223.6436 179.2701 223.5059 178.602 223.2887 177.5852 223.0135 176.8232 222.6716 176.3169 222.3295 175.8064 221.8431 175.4351 221.2092 175.1995 220.35 174.8806 219.5172 174.9053 218.713 175.2735 217.908 175.6431 217.3269 176.2671 216.9689 177.1455 216.79 177.5843 216.6712 177.9715 216.6103 178.3057 216.5502 178.6428 216.5261 179.0527 216.5394 179.536L218.4738 180.2546C218.2003 179.8055 218.0373 179.3837 217.9843 178.992 217.9301 178.6005 217.9831 178.2113 218.1404 177.8236 218.3394 177.3349 218.6501 176.9868 219.075 176.7733 219.4988 176.5613 219.9297 176.5355 220.3716 176.6996 220.7526 176.8411 221.0485 177.0778 221.254 177.4069 221.4584 177.7283 221.631 178.2334 221.7756 178.9234 221.982 179.9147 222.2427 180.6557 222.5667 181.148 222.8876 181.6413 223.3417 181.9981 223.9279 182.2161 224.7369 182.5166 225.5338 182.4732 226.3127 182.0835 227.092 181.6937 227.664 181.0542 228.0271 180.163 228.1731 179.8055 228.2683 179.477 228.3165 179.1726 228.3656 178.8684 228.3707 178.5682 228.3321 178.2689ZM222.0894 173.5546 226.5834 174.7613C227.2518 174.9407 227.8054 175.1182 228.2462 175.2919 228.6848 175.4674 229.1281 175.6865 229.5751 175.953L229.9088 174.8194 230.2832 173.55C230.6412 172.3337 230.6458 171.354 230.2997 170.6088 229.9527 169.8605 229.2542 169.3466 228.2014 169.0642 227.0699 168.7603 226.139 168.8919 225.4068 169.4582 224.7248 169.992 224.1635 170.9476 223.7233 172.3241L222.5429 172.0071C221.8714 171.8271 221.3138 171.648 220.875 171.4754 220.4365 171.2999 219.9957 171.0808 219.5538 170.8155L219.223 171.9388 218.8894 173.0696C219.401 173.0682 219.8903 173.103 220.3614 173.1747 220.8308 173.2456 221.4062 173.3715 222.0894 173.5546ZM224.534 172.5415V172.5415C224.7911 171.7033 225.1568 171.1349 225.6304 170.8325 226.1061 170.5306 226.7357 170.4838 227.5251 170.6956 228.2936 170.9019 228.814 171.2412 229.0907 171.7115 229.3637 172.1826 229.392 172.7853 229.176 173.5191L229.1029 173.768ZM224.1697 166.015 228.7188 167.0162C229.3957 167.1656 229.9567 167.3178 230.4068 167.4709 230.8533 167.6262 231.3068 167.8252 231.7666 168.0712L232.0418 166.9326 232.3174 165.7891C231.8026 165.8137 231.3094 165.7996 230.8397 165.7505 230.3702 165.7018 229.788 165.6026 229.0969 165.4503L224.5479 164.4489C223.8661 164.2986 223.3032 164.1464 222.8536 163.9928 222.4066 163.838 221.9556 163.6387 221.5009 163.3941L221.2268 164.5308 220.9496 165.6754C221.4598 165.6507 221.9505 165.6638 222.4253 165.714 222.8922 165.7624 223.4744 165.8616 224.1697 166.015ZM225.5757 159.2614 232.2094 160.0407C232.1141 160.5926 232.0118 161.0649 231.8978 161.456 231.6807 162.2146 231.402 162.8289 231.0585 163.2977L232.054 163.101 233.0544 162.9045 233.5079 159.3833 234.0289 155.3406 233.0889 155.4834 232.1481 155.6362C232.3091 156.2805 232.4146 156.8231 232.4619 157.2687 232.4948 157.657 232.4948 158.0519 232.4582 158.4505L225.7815 157.6661C225.1454 157.5916 224.5935 157.4969 224.1343 157.3801 223.6734 157.2656 223.1762 157.0978 222.6433 156.8792L222.4891 158.0777 222.3332 159.2861C222.8907 159.1977 223.4086 159.1534 223.8837 159.1515 224.3594 159.1495 224.9252 159.1855 225.5757 159.2614ZM226.3045 152.0572 234.5176 148.6621 234.5182 148.6508 226.5299 144.7977C225.6117 144.3532 224.9212 143.9892 224.4583 143.7109 223.9954 143.4322 223.6303 143.1587 223.3704 142.8942L223.3293 144.2078 223.2887 145.5239C223.5129 145.4746 223.8579 145.5094 224.3234 145.6294 224.7894 145.7487 225.2945 145.9295 225.8388 146.1713L226.6841 146.5396 226.5619 150.4704 226.3986 150.5143C225.7353 150.7663 225.0831 150.9554 224.447 151.0829 223.8117 151.2085 223.3653 151.2374 223.1138 151.1654L223.0722 152.4906 223.0316 153.8201C223.3423 153.5403 223.7383 153.2716 224.2176 153.0153 224.7001 152.7562 225.3949 152.4387 226.3045 152.0572ZM231.3941 148.6412 228.0025 149.927 228.0878 147.1564 231.3941 148.6293ZM222.9489 141.8924C223.42 141.7025 223.8854 141.5546 224.3492 141.4471 224.8109 141.3388 225.3929 141.2427 226.0964 141.1605L230.7302 140.6163C231.4193 140.5352 232.001 140.495 232.4789 140.4924 232.954 140.4924 233.4515 140.5315 233.9719 140.6123L233.8223 139.4524 233.6726 138.2882C233.1969 138.479 232.7289 138.6269 232.2694 138.7341 231.8108 138.8415 231.228 138.9376 230.5244 139.0204L223.9217 139.7957C223.8534 138.9988 223.8355 138.3267 223.8693 137.7754 223.9177 136.9417 224.0884 136.1883 224.3789 135.5119L223.3267 136.0777 222.2739 136.6526 222.6969 139.9329Z" fill="#ed1c24" data-index="13" style="visibility: hidden;"/>
</g>
</svg>